
<svg enable-background="new 0 0 2834.6 2379.8" height="289.800578" preserveAspectRatio="xMidYMid" viewBox="0 0 2834.6 2379.8" width="345.064874" xmlns="http://www.w3.org/2000/svg" xmlns:xlink="http://www.w3.org/1999/xlink"><radialGradient id="a" cx="1271.771" cy="1171.83" gradientUnits="userSpaceOnUse" r="1171.83"><stop offset="0" stop-color="#9d1d22"/><stop offset=".9341" stop-color="#631311"/></radialGradient><linearGradient id="b"><stop offset=".5042" stop-color="#ffe500" stop-opacity="0"/><stop offset="1" stop-color="#ffe500"/></linearGradient><radialGradient id="c" cx="964.623" cy="1418.358" gradientUnits="userSpaceOnUse" r="408.52" xlink:href="#b"/><radialGradient id="d" cx="2159.647" cy="949.4798" gradientUnits="userSpaceOnUse" r="468.0513" xlink:href="#b"/><linearGradient id="e" gradientUnits="userSpaceOnUse" x1="922.1468" x2="974.5092" y1="1610.876" y2="1722.571"><stop offset=".0552147" stop-color="#ee312f"/><stop offset=".1329" stop-color="#ee2328"/><stop offset=".202" stop-color="#ed1c24"/><stop offset=".5115" stop-color="#820000"/><stop offset=".9571" stop-color="#5e0000"/></linearGradient><linearGradient id="f" gradientUnits="userSpaceOnUse" x1="1019.491" x2="1083.776" y1="1505.183" y2="1572.102"><stop offset=".1718" stop-color="#ed1c24"/><stop offset=".7239" stop-color="#820000"/><stop offset="1" stop-color="#8b0304"/></linearGradient><linearGradient id="g" gradientUnits="userSpaceOnUse" x1="905.8105" x2="855.453" y1="1617.504" y2="1693.069"><stop offset=".0490798" stop-color="#facacc"/><stop offset=".3006" stop-color="#ef413a"/><stop offset=".5276" stop-color="#ef413a"/><stop offset=".8037" stop-color="#ee312f"/><stop offset="1" stop-color="#ee312f"/></linearGradient><linearGradient id="h" gradientUnits="userSpaceOnUse" x1="928.6199" x2="805.5289" y1="1736.257" y2="1604.489"><stop offset=".0920245" stop-color="#5e0000"/><stop offset=".5734" stop-color="#8b0304"/><stop offset=".6247" stop-color="#800203"/><stop offset=".7325" stop-color="#6e0101"/><stop offset=".8098" stop-color="#670000"/></linearGradient><linearGradient id="i" gradientUnits="userSpaceOnUse" x1="872.2181" x2="1007.381" y1="1585.004" y2="1726.443"><stop offset=".4417" stop-color="#facacc"/><stop offset="1" stop-color="#cb7a77"/></linearGradient><radialGradient id="j" cx="904.7133" cy="1583.637" gradientTransform="matrix(.8051 .5923 -.6174 .8371 1154.105 -276.9754)" gradientUnits="userSpaceOnUse" r="139.945"><stop offset=".0368098" stop-color="#f7a1a1"/><stop offset=".227" stop-color="#f26d6c"/><stop offset=".4847" stop-color="#ed1c24"/><stop offset=".9222" stop-color="#aa0d12"/><stop offset="1" stop-color="#9e0b0f"/></radialGradient><linearGradient id="k" gradientUnits="userSpaceOnUse" x1="871.7789" x2="857.2825" y1="1685.497" y2="1722.279"><stop offset="0" stop-color="#ba141a"/><stop offset=".2147" stop-color="#e11b22"/><stop offset=".3497" stop-color="#cf3828"/><stop offset=".6748" stop-color="#790000"/></linearGradient><linearGradient id="l" gradientUnits="userSpaceOnUse" x1="944.0449" x2="850.7381" y1="1461.292" y2="1467.8"><stop offset="0" stop-color="#ed1c24"/><stop offset=".278" stop-color="#c8151b"/><stop offset=".5083" stop-color="#b01015"/><stop offset=".6503" stop-color="#a70e13"/></linearGradient><linearGradient id="m" gradientUnits="userSpaceOnUse" x1="892.4506" x2="944.89" y1="1468.277" y2="1509.22"><stop offset=".0184049" stop-color="#670000"/><stop offset=".291" stop-color="#790000"/><stop offset=".9448" stop-color="#8b0304"/></linearGradient><radialGradient id="n" cx="876.2896" cy="1695.224" gradientTransform="matrix(.9168 .3989 -.02448592 .05612854 114.4436 1251.259)" gradientUnits="userSpaceOnUse" r="53.3946"><stop offset=".0122699" stop-color="#f8b5ba"/><stop offset=".319" stop-color="#f7a1a1"/><stop offset=".4578" stop-color="#f48383"/><stop offset=".75" stop-color="#f04847"/><stop offset=".8896" stop-color="#ee312f"/></radialGradient><radialGradient id="o" cx="971.328" cy="1504.767" gradientTransform="matrix(1 0 0 .9987 0 2.9398)" gradientUnits="userSpaceOnUse" r="92.2321"><stop offset=".2761" stop-color="#f26d6c"/><stop offset=".7239" stop-color="#ee312f"/><stop offset=".9448" stop-color="#ed1c24"/></radialGradient><linearGradient id="p"><stop offset="0" stop-color="#f7a1a1"/><stop offset="1" stop-color="#ed1c24"/></linearGradient><linearGradient id="q" gradientUnits="userSpaceOnUse" x1="913.4062" x2="913.3859" xlink:href="#p" y1="1451.28" y2="1451.311"/><linearGradient id="r" gradientUnits="userSpaceOnUse" x1="991.598" x2="990.165" xlink:href="#p" y1="1484.638" y2="1486.845"/><linearGradient id="s" gradientUnits="userSpaceOnUse" x1="842.263" x2="1054.679" y1="1546.849" y2="1546.849"><stop offset="0" stop-color="#fff"/><stop offset=".08749742" stop-color="#fde7e7"/><stop offset=".2049" stop-color="#fbcdcd"/><stop offset=".3358" stop-color="#f9baba"/><stop offset=".4858" stop-color="#f8acac"/><stop offset=".6714" stop-color="#f7a4a4"/><stop offset="1" stop-color="#f7a1a1"/></linearGradient><radialGradient id="t" cx="364.7447" cy="1512.084" gradientTransform="matrix(.9622 -.2722 .4102 1.4503 -606.4825 -581.5505)" gradientUnits="userSpaceOnUse" r="513.6836" xlink:href="#b"/><radialGradient id="u" cx="1588.841" cy="1181.16" gradientUnits="userSpaceOnUse" r="468.0513" xlink:href="#b"/><circle cx="1271.8" cy="1171.8" fill="url(#a)" r="1171.8"/><path d="m80.9 2190.2c-11.5-13.5-10-33.7 3.4-45.2 13.5-11.5 33.7-9.9 45.2 3.4 11.5 13.5 9.9 33.7-3.4 45.2-6.1 5.2-13.5 7.8-20.9 7.7-9 0-18-3.7-24.3-11.1z" fill="#d71f28" opacity=".71"/><path d="m2565.8 1999.2c-15.1-9.2-19.9-29-10.6-44.1 9.2-15.1 28.9-19.9 44.1-10.7 15.1 9.2 19.8 29 10.6 44.1-6 9.9-16.6 15.4-27.3 15.4-5.8 0-11.6-1.5-16.8-4.7z" fill="#d71f28" opacity=".71"/><path d="m2626.8 1895.1c-15.8-8-22-27.3-14-43.1 8-15.8 27.3-22.1 43-14 15.8 7.9 22.1 27.3 14.1 43-5.7 11.1-16.9 17.6-28.6 17.6-4.9 0-9.9-1.1-14.5-3.5z" fill="#d71f28" opacity=".71"/><path d="m2679.4 1786.6c-16.4-6.8-24.2-25.5-17.5-41.9 6.8-16.4 25.5-24.1 41.9-17.4 16.4 6.7 24.1 25.5 17.4 41.8-5.1 12.4-17.1 19.9-29.7 19.9-4 0-8-.8-12.1-2.4z" fill="#d71f28" opacity=".71"/><path d="m2723.3 1674.3c-16.8-5.4-26.1-23.5-20.7-40.4 5.4-16.8 23.5-26.1 40.4-20.7 16.8 5.4 26.1 23.6 20.7 40.4s0 0-.1 0c-4.3 13.5-16.9 22.2-30.5 22.2-3.2 0-6.5-.5-9.8-1.5z" fill="#d71f28" opacity=".71"/><path d="m2758.2 1558.9c-17.2-4.1-27.9-21.3-23.8-38.6 4.1-17.2 21.4-27.9 38.6-23.8 17.2 4.1 27.8 21.3 23.8 38.6-3.5 14.7-16.7 24.7-31.3 24.7-2.4-.1-4.9-.3-7.3-.9z" fill="#d71f28" opacity=".71"/><path d="m2783.8 1441.1c-17.5-2.7-29.5-19.2-26.8-36.6 2.7-17.5 19.2-29.4 36.6-26.8 17.5 2.7 29.5 19.2 26.8 36.6-2.5 15.9-16.1 27.2-31.7 27.2-1.5 0-3.2-.2-4.9-.4z" fill="#d71f28" opacity=".71"/><path d="m2800.2 1321.7c-17.6-1.4-30.9-16.8-29.5-34.4 1.4-17.7 16.8-30.9 34.4-29.5 17.6 1.3 30.9 16.8 29.5 34.4-1.3 16.8-15.3 29.6-31.9 29.6-.9 0-1.7 0-2.5-.1z" fill="#d71f28" opacity=".71"/><path d="m175.5 2160.1c-11.9-13.1-10.8-33.3 2.3-45.2 13.1-11.9 33.4-10.8 45.3 2.3 11.9 13.1 10.8 33.4-2.3 45.3-6.1 5.5-13.8 8.3-21.5 8.3-8.8 0-17.5-3.6-23.8-10.7z" fill="#d71f28" opacity=".71"/><path d="m96.5 2065.1c-10.7-14.1-8-34.2 6.1-45 14-10.7 34.1-8 44.9 6 10.7 14.1 8 34.2-6 45-5.9 4.4-12.7 6.6-19.5 6.6-9.6-.1-19.1-4.4-25.5-12.6z" fill="#d71f28" opacity=".71"/><path d="m2711.6 1292.2c-17.6-1.1-31.1-16.4-30.1-34 1.1-17.7 16.3-31.1 34-30.1 17.6 1.1 31.1 16.3 30.1 34-1 17-15.2 30.1-32 30.1-.6 0-1.4 0-2 0z" fill="#d71f28" opacity=".71"/><path d="m2683.9 1139.9c-.4-17.7 13.7-32.4 31.3-32.7 17.7-.4 32.4 13.6 32.8 31.3.4 17.7-13.6 32.3-31.3 32.7-.2 0-.5 0-.7 0-17.5 0-31.7-13.8-32.1-31.3z" fill="#ef404d" opacity=".71"/><path d="m282.2 2141c-12.4-12.7-12.2-32.9.5-45.4 12.7-12.3 33-12.1 45.4.6 12.3 12.7 12.1 32.9-.6 45.3-6.2 6.1-14.3 9.1-22.4 9.1-8.3.1-16.7-3.1-22.9-9.6z" fill="#d71f28" opacity=".71"/><path d="m200.4 2049.8c-11.3-13.7-9.3-33.9 4.4-45.1 13.7-11.3 33.9-9.3 45.1 4.4 11.2 13.7 9.2 33.9-4.4 45.1-6 4.9-13.2 7.3-20.4 7.3-9.2 0-18.4-4-24.7-11.7z" fill="#d71f28" opacity=".71"/><path d="m2300.7 2052c-13.7-11.1-15.8-31.3-4.6-45 11.2-13.8 31.4-15.8 45.1-4.6 13.7 11.1 15.7 31.3 4.6 45-6.3 7.8-15.6 11.9-24.8 11.9-7.2 0-14.4-2.4-20.3-7.3z" fill="#d71f28" opacity=".71"/><path d="m2374.5 1957.7c-14.7-9.9-18.5-29.9-8.6-44.6 10-14.7 29.9-18.4 44.6-8.5 14.7 9.9 18.4 29.9 8.5 44.5-6.2 9.1-16.3 14.1-26.5 14.1-6.2.1-12.5-1.8-18-5.5z" fill="#ef404d" opacity=".71"/><path d="m62 1847.8c-8.7-15.5-3.2-35 12.3-43.7 15.4-8.7 34.9-3.2 43.7 12.3 8.7 15.4 3.1 34.9-12.3 43.7-5 2.7-10.30001 4.1-15.7 4.1-11.2-.1-22-6-28-16.4z" fill="#d71f28" opacity=".71"/><path d="m2439.7 1857.2c-15.5-8.6-21-28.1-12.4-43.6 8.6-15.5 28.1-21 43.6-12.4 15.5 8.7 21 28.1 12.4 43.6-5.9 10.6-16.8 16.5-28.1 16.5-5.2 0-10.5-1.3-15.5-4.1z" fill="#d71f28" opacity=".71"/><path d="m6.8 1738.3c-7.3-16.1-.1-35.1 16-42.4 16.2-7.2 35.2-.1 42.4 16.1 7.3 16.1.1 35.1-16 42.4-4.3 1.9-8.7 2.8-13.1 2.8-12.3 0-23.9-7.1-29.3-18.9z" fill="#d71f28" opacity=".71"/><path d="m2495.7 1751.4c-16.2-7.2-23.4-26.2-16.2-42.3 7.1-16.2 26.1-23.5 42.3-16.3 16.2 7.2 23.4 26.1 16.2 42.3-5.3 11.9-17 19-29.3 19-4.3 0-8.7-.9-13-2.7z" fill="#ef404d" opacity=".71"/><path d="m2542.2 1640.9c-16.8-5.7-25.7-24-20-40.7 5.7-16.8 24-25.7 40.7-20 16.8 5.8 25.7 24 20 40.7-4.6 13.3-17.1 21.7-30.4 21.7-3.4.1-6.8-.5-10.3-1.7z" fill="#ef404d" opacity=".71"/><path d="m2578.6 1526.9c-17.2-4.3-27.7-21.6-23.5-38.8 4.2-17.2 21.6-27.7 38.8-23.5 17.2 4.2 27.7 21.6 23.5 38.8-3.6 14.6-16.7 24.4-31.1 24.4-2.6 0-5.1-.3-7.7-.9z" fill="#d71f28" opacity=".71"/><path d="m2604.7 1410c-17.5-2.6-29.5-19-26.8-36.6 2.7-17.5 19.1-29.5 36.6-26.8 17.5 2.6 29.5 19 26.8 36.5-2.4 15.8-16.1 27.2-31.7 27.2-1.6.1-3.2 0-4.9-.3z" fill="#d71f28" opacity=".71"/><path d="m2620.4 1291.4c-17.6-1.2-31-16.4-29.9-34.1 1.1-17.7 16.4-31.1 34.1-30 17.6 1.1 31.1 16.4 29.9 34.1-1 17-15.2 30-32 30-.6 0-1.3 0-2.1 0z" fill="#d71f28" opacity=".71"/><path d="m2593 1140.4c-.4-17.7 13.6-32.4 31.3-32.8 17.7-.4 32.4 13.6 32.8 31.3.4 17.7-13.6 32.4-31.3 32.8-.2 0-.5 0-.7 0-17.5 0-31.7-13.9-32.1-31.3z" fill="#d71f28" opacity=".71"/><path d="m2585.1 1023.7c-2-17.6 10.7-33.4 28.3-35.4 17.6-1.9 33.5 10.7 35.4 28.3 2 17.6-10.7 33.5-28.3 35.4-1.2.2-2.4.2-3.6.2-16.1.1-30-12-31.8-28.5z" fill="#ef404d" opacity=".71"/><path d="m2566.9 908.4c-3.5-17.4 7.7-34.3 25.1-37.8 17.3-3.5 34.2 7.7 37.8 25 3.5 17.3-7.7 34.3-25 37.8-2.2.4-4.3.6-6.4.6-15 0-28.4-10.5-31.5-25.6z" fill="#d71f28" opacity=".71"/><path d="m2538.5 795c-5-17 4.6-34.9 21.6-39.9 16.9-5 34.8 4.6 39.9 21.6 5 16.9-4.6 34.7999-21.6 39.9-3 .9-6.2 1.3-9.2 1.3-13.8 0-26.5-9-30.7-22.9z" fill="#d71f28" opacity=".71"/><path d="m384.1 2082.4c-12.7-12.3-12.9-32.7-.5-45.3 12.3-12.7 32.6-12.9 45.4-.6 12.6 12.4 12.8 32.7.5 45.4-6.3 6.4-14.6 9.6-22.9 9.6-8.1 0-16.2-3-22.5-9.1z" fill="#d71f28" opacity=".71"/><path d="m300.4 1992.4c-11.5-13.5-9.8-33.7 3.8-45.2 13.5-11.5 33.7-9.8 45.2 3.8 11.4 13.5 9.7 33.7-3.8 45.2-6 5-13.4 7.5-20.7 7.5-9.1 0-18.1-3.8-24.5-11.3z" fill="#d71f28" opacity=".71"/><path d="m2200.4 1994.2c-13.6-11.4-15.3-31.6-3.9-45.1 11.4-13.5 31.6-15.3 45.1-3.9 13.6 11.4 15.3 31.7 3.9 45.2-6.3 7.5-15.5 11.4-24.6 11.4-7.1-.1-14.5-2.6-20.5-7.6z" fill="#d71f28" opacity=".71"/><path d="m225.7 1895c-10.2-14.5-6.6-34.5 8-44.7 14.5-10.1 34.5-6.5 44.6 8.1h.1c10.1 14.5 6.5 34.5-8.1 44.6-5.5 3.9-11.9 5.8-18.3 5.8-10.2 0-20.2-4.9-26.3-13.8z" fill="#d71f28" opacity=".71"/><path d="m2275.5 1900.8c-14.6-10-18.3-30-8.3-44.6 10-14.6 30-18.3 44.6-8.3 14.6 10 18.3 30 8.3 44.6-6.2 9.1-16.3 13.9-26.5 13.9-6.2.1-12.5-1.7-18.1-5.6z" fill="#ef404d" opacity=".71"/><path d="m160.4 1790.8c-8.7-15.5-3.1-34.9 12.3-43.6 15.4-8.7 34.9-3.2 43.6 12.3 8.7 15.5 3.1 35-12.3 43.7-5 2.7-10.3 4.1-15.7 4.1-11.1-.1-22-6-27.9-16.5z" fill="#d71f28" opacity=".71"/><path d="m2341.3 1800.6c-15.5-8.6-21.1-28.1-12.5-43.6 8.6-15.5 28.1-21.1 43.6-12.5 15.5 8.6 21 28.1 12.5 43.6-5.9 10.6-16.8 16.5-28.1 16.5-5.3 0-10.7-1.3-15.5-4z" fill="#d71f28" opacity=".71"/><path d="m105.6 1680.7c-7.1-16.2.3-35.1 16.5-42.2 16.3-7.1 35.1.3 42.2 16.5 7.1 16.2-.2 35.1-16.4 42.2-4.2 1.8-8.6 2.7-12.9 2.7-12.4 0-24.1-7.2-29.4-19.2z" fill="#ef404d" opacity=".71"/><path d="m2397 1694.5c-16.3-7.1-23.7-25.9-16.7-42.2 7.1-16.3 25.9-23.6 42.2-16.7 16.3 7.1 23.7 26 16.7 42.2-5.2 12-17.1 19.2-29.4 19.2-4.3.1-8.7-.7-12.8-2.5z" fill="#d71f28" opacity=".71"/><path d="m61.8 1565.8c-5.5-16.8 3.7-34.9 20.5-40.4 16.80001-5.5 34.9 3.7 40.5 20.5 5.5 16.8-3.8 34.9-20.6 40.4-3.3 1.1-6.69999 1.6-9.9 1.6-13.5.1-26.1-8.5-30.5-22.1z" fill="#ef404d" opacity=".71"/><path d="m2442.2 1583.6c-16.9-5.5-26.1-23.5-20.7-40.4 5.4-16.8 23.5-26.1 40.3-20.7 16.8 5.5 26.1 23.6 20.7 40.4-4.4 13.5-17 22.2-30.5 22.2-3.2 0-6.6-.5-9.8-1.5z" fill="#d71f28" opacity=".71"/><path d="m29.5 1447.3c-3.8-17.3 7.1-34.4 24.4-38.2 17.20001-3.8 34.4 7.1 38.20001 24.4 3.8 17.3-7.1 34.4-24.40001 38.2-2.3.5-4.59999.7-6.9.7-14.8 0-28-10.2-31.3-25.1z" fill="#ef404d" opacity=".71"/><path d="m2476.3 1468.7c-17.3-3.8-28.3-20.8-24.5-38.2 3.9-17.3 20.9-28.3 38.2-24.5 17.2 3.8 28.2 20.8 24.4 38.2-3.3 15-16.6 25.2-31.3 25.2-2.2 0-4.4-.2-6.8-.7z" fill="#d71f28" opacity=".71"/><path d="m8.8 1326.1c-2.1-17.6 10.4-33.5 28-35.7 17.6-2.1 33.59999 10.4 35.7 28 2.2 17.6-10.4 33.6-28 35.7-1.3.2-2.6.2-3.8.2-16.1 0-29.9-11.9-31.9-28.2z" fill="#d71f28" opacity=".71"/><path d="m0 1203.5c-.4-17.7 13.6-32.4 31.3-32.8 17.8-.5 32.5 13.5 32.9 31.3.4 17.7-13.6 32.4-31.3 32.8-.2.1-.5.1-.7.1-17.5 0-31.8-13.9-32.2-31.4z" fill="#d71f28" opacity=".71"/><path d="m2510.7 1231.8c-17.7-.4-31.7-15.1-31.3-32.8.4-17.7 15.1-31.7 32.8-31.3 17.7.4 31.7 15.1 31.3 32.8-.4 17.5-14.7 31.3-32.1 31.3-.2 0-.4 0-.7 0z" fill="#d71f28" opacity=".71"/><path d="m32.6 1114.9c-17.6-1.3-30.900001-16.6-29.700002-34.2 1.3-17.7 16.600002-31 34.200002-29.7 17.7 1.3 31 16.6 29.7 34.3-1.19999 16.8-15.3 29.7-31.9 29.7-.7 0-1.5 0-2.3-.1z" fill="#d71f28" opacity=".71"/><path d="m2476.5 1082.3c-1.3-17.6 11.9-33 29.6-34.3 17.6-1.3 33 11.9 34.3 29.7 1.4 17.6-11.9 33-29.6 34.3-.8.1-1.6.1-2.4.1-16.6 0-30.7-12.9-31.9-29.8z" fill="#d71f28" opacity=".71"/><path d="m2462.3 966.6c-3-17.5 8.7-34.1 26.1-37 17.5-3 34 8.7 37 26.1 3 17.5-8.7 34.0999-26.1 37-1.8.2999-3.7.5-5.5.5-15.3 0-28.9-11-31.5-26.6z" fill="#ef404d" opacity=".71"/><path d="m66.5 878c-17.1-4.6-27.2-22.2-22.6-39.3 4.6-17.2 22.3-27.3 39.4-22.6 17.1 4.6 27.2 22.2 22.6 39.3-3.9 14.3-16.79999 23.7-30.9 23.7-2.9 0-5.7-.3-8.5-1.1z" fill="#d71f28" opacity=".71"/><path d="m2436.9 852.7c-4.7-17.1 5.3-34.7 22.4-39.4 17.1-4.7 34.7 5.3 39.4 22.4 4.7 17-5.4 34.7-22.4 39.4-2.9.8-5.8 1.2-8.6 1.2-14 0-26.9-9.4-30.8-23.6z" fill="#d71f28" opacity=".71"/><path d="m2400.5 741.9c-6.3-16.6 2-35.1 18.5-41.4 16.5-6.3 35.1 1.9 41.4 18.5s0 0-.1 0c6.4 16.5-1.9 35-18.4 41.4-3.8 1.4-7.6 2.2-11.5 2.2-12.8-.1-25-8-29.9-20.7z" fill="#ef404d" opacity=".71"/><path d="m2353.6 635c-7.9-15.9-1.4-35.1 14.4-43 15.8-7.9 35-1.4 43 14.4 7.9 15.9 1.4 35.1-14.4 43-4.6 2.3-9.5 3.4-14.3 3.4-11.8 0-23.1-6.5-28.7-17.8z" fill="#d71f28" opacity=".71"/><path d="m2296.6 533.2c-9.4-15.1-4.8-34.8 10.2-44.2 15-9.5 34.8-4.9 44.2 10.2 9.4 15 4.8 34.8-10.2 44.2-5.3 3.3-11.1 4.9-17 4.9-10.7 0-21.1-5.4-27.2-15.1z" fill="#d71f28" opacity=".71"/><path d="m1300.4 2298.3c-1-17.6 12.6-32.8 30.3-33.7 17.6-1 32.8 12.6 33.7 30.3 1 17.6-12.6 32.8-30.3 33.7-.6 0-1.1 0-1.7 0-16.9.1-31.1-13.1-32-30.3z" fill="#d71f28" opacity=".71"/><path d="m1210.9 2328.7c-.5 0-.9-.1-1.4-.1-.3 0-.6-.1-.9-.1-17.7-1-31.3-16-30.3-33.7 1-17.6 16-31.3 33.7-30.3v.1h1c.3 0 .7.1 1.1.1h.1c17.6.9 31.3 16 30.3 33.7-.9 17.2-15.1 30.4-32 30.4-.5-.1-1.1-.1-1.6-.1z" fill="#d71f28" opacity=".71"/><path d="m1419.9 2289c-2.9-17.5 9.1-34 26.5-36.8 17.5-2.8 33.9 9.1 36.7 26.5 2.9 17.5-9.1 34-26.5 36.8-1.7.3-3.5.4-5.1.4-15.5.1-29.1-11.2-31.6-26.9z" fill="#d71f28" opacity=".71"/><path d="m1086.1 2315.4c-17.5-2.9-29.3-19.3-26.5-36.8 2.8-17.5 19.2-29.3 36.8-26.5 17.5 2.8 29.3 19.3 26.5 36.8-2.6 15.7-16.2 26.9-31.7 26.9-1.7 0-3.4-.2-5.1-.4z" fill="#d71f28" opacity=".71"/><path d="m1537.8 2267c-4.7-17.1 5.4-34.7 22.5-39.4 17.1-4.6 34.7 5.4 39.4 22.4 4.7 17.1-5.4 34.7-22.5 39.4-2.8.7-5.7 1.1-8.5 1.1-14.1 0-27.1-9.3-30.9-23.5z" fill="#ef404d" opacity=".71"/><path d="m965.6 2289.3c-17.1-4.7-27.1-22.4-22.4-39.4 4.5999-17.1 22.2999-27.1 39.4-22.4 17.1 4.6 27.1 22.3 22.4 39.4-3.9 14.3-16.8 23.6-30.9 23.6-2.8-.1-5.6-.5-8.5-1.2z" fill="#ef404d" opacity=".71"/><path d="m1652.5 2232.3c-6.5-16.4 1.6-35 18.1-41.5 16.4-6.5 35.1 1.6 41.6 18.1 6.4 16.4-1.7 35-18.1 41.5-3.9 1.5-7.9 2.2-11.8 2.2-12.7.1-24.8-7.6-29.8-20.3z" fill="#ef404d" opacity=".71"/><path d="m848.6 2250.3c-16.4-6.5-24.5-25.1-18.1-41.6 6.5-16.4 25.1-24.5 41.6-18 16.5 6.5 24.6 25.1 18.1 41.5-5 12.7-17.1 20.4-29.8 20.4-4-.1-8-.8-11.8-2.3z" fill="#f9d310" opacity=".9"/><path d="m1762.9 2185.8c-8.2-15.7-2.1-35.1 13.6-43.3 15.7-8.2 35-2.1 43.3 13.6 8.2 15.6 2.1 35-13.6 43.2-4.7 2.5-9.8 3.7-14.8 3.7-11.6 0-22.7-6.3-28.5-17.2z" fill="#d71f28" opacity=".71"/><path d="m736.4 2199.1c-15.7-8.2-21.8-27.6-13.5-43.3 8.2-15.6 27.6-21.7 43.2-13.5 15.7 8.3 21.8 27.6 13.6 43.3-5.7 11-16.8 17.2-28.4 17.2-5.1 0-10.2-1.2-14.9-3.7z" fill="#ef404d" opacity=".71"/><path d="m1867.8 2127.7c-9.8-14.7-5.8-34.6 9-44.5 14.8-9.8 34.6-5.8 44.4 9 9.9 14.7 5.9 34.6-8.9 44.4-5.5 3.7-11.6 5.4-17.7 5.4-10.5-.1-20.6-5-26.8-14.3z" fill="#d71f28" opacity=".71"/><path d="m630.4 2136.2c-14.7-9.9-18.8-29.7-8.9-44.5 9.9-14.7 29.7-18.7 44.5-8.9 14.7 9.9 18.7 29.7 8.8 44.5-6.2 9.3-16.4 14.3-26.7 14.3-6.1 0-12.3-1.8-17.7-5.4z" fill="#d71f28" opacity=".71"/><path d="m1966 2058.8c-11.3-13.6-9.5-33.8 4.2-45.1 13.6-11.3 33.8-9.5 45.1 4.2 11.3 13.6 9.5 33.8-4.2 45.1-6 5-13.2 7.4-20.4 7.4-9.3 0-18.4-4-24.7-11.6z" fill="#d71f28" opacity=".71"/><path d="m531.6 2062.4c-13.6-11.3-15.5-31.5-4.2-45.1 11.4-13.6 31.5999-15.5 45.2-4.1 13.6 11.3 15.5 31.5 4.1 45.1-6.3 7.6-15.5 11.5-24.6 11.5-7.3.1-14.5-2.3-20.5-7.4z" fill="#d71f28" opacity=".71"/><path d="m2056.3 1980c-12.7-12.4-13-32.7-.6-45.4 12.4-12.7 32.7-13 45.4-.6 12.7 12.3 13 32.6.6 45.3-6.3 6.5-14.7 9.7-23 9.7-8.1.1-16.1-3-22.4-9z" fill="#f9d310" opacity=".9"/><path d="m441.2 1978.7c-12.3-12.7-12-33 .7-45.3 12.7-12.3 32.9-12.1 45.3.6 12.3 12.7 12 33-.6 45.4-6.3 6-14.3 9.1-22.4 9.1-8.3-.1-16.7-3.4-23-9.8z" fill="#d71f28" opacity=".71"/><path d="m2137.8 1892.1c-13.9-11-16.3-31.1-5.4-45 11-13.9 31.1-16.4 45-5.4 13.9 11 16.3 31.1 5.4 45-6.3 8-15.7 12.2-25.3 12.2-6.8 0-13.7-2.3-19.7-6.8z" fill="#d71f28" opacity=".71"/><path d="m360.2 1885.8c-11-13.9-8.5-34.1 5.4-45 13.9-10.9 34.1-8.4 45 5.5 11 13.9 8.5 34.1-5.5 45-5.8 4.6-12.8 6.8-19.7 6.8-9.5 0-18.9-4.2-25.2-12.3z" fill="#d71f28" opacity=".71"/><path d="m2209.6 1796c-15-9.5-19.6-29.3-10.1-44.2 9.4-15 29.2-19.5 44.2-10.1 15 9.4 19.6 29.2 10.1 44.2-6.1 9.7-16.5 15.1-27.2 15.1-5.7-.1-11.7-1.7-17-5z" fill="#ef404d" opacity=".71"/><path d="m289.4 1785c-9.5-15-4.9-34.8 10.1-44.2 15.1-9.4 34.8-4.9 44.2 10.2 9.4 15 4.8 34.8-10.2 44.2-5.3 3.3-11.1 4.9-17 4.9-10.6 0-21.1-5.4-27.1-15.1z" fill="#f9d310" opacity=".71"/><path d="m2270.9 1692.9c-16-7.8-22.6-26.9-14.8-42.9 7.8-15.9 27-22.5 42.9-14.7 15.9 7.8 22.5 26.9 14.7 42.9-5.5 11.4-16.9 18-28.9 18-4.6 0-9.4-1.1-13.9-3.3z" fill="#d71f28" opacity=".71"/><path d="m229.6 1677.3c-7.8-15.9-1.1-35.1 14.8-42.9 15.9-7.8 35.1-1.1 42.8 14.8 7.8 15.9 1.1 35-14.8 42.8-4.6 2.2-9.3 3.3-14 3.3-11.8 0-23.3-6.7-28.8-18z" fill="#d71f28" opacity=".71"/><path d="m2320.7 1583.8c-16.6-6-25.3-24.4-19.2-41 6-16.7 24.4-25.3 41-19.2 16.7 6 25.2 24.4 19.3 41-4.7 13.1-17.1 21.2-30.2 21.2-3.7-.1-7.3-.7-10.9-2z" fill="#f9d310" opacity=".9"/><path d="m181.6 1563.8c-6-16.7 2.6-35 19.2-41 16.7-6 35 2.6 41 19.2 6 16.7-2.6 35-19.2 41-3.6 1.3-7.3 1.9-10.9 1.9-13.1 0-25.4-8.1-30.1-21.1z" fill="#d71f28" opacity=".71"/><path d="m2358.6 1470c-17.2-4.2-27.7-21.5-23.6-38.7 4.2-17.2 21.6-27.7 38.7-23.6 17.2 4.2 27.8 21.6 23.6 38.8s0 0 0-.1c-3.5 14.7-16.7 24.5-31.1 24.5-2.5 0-5.1-.3-7.6-.9z" fill="#d71f28" opacity=".71"/><path d="m146.1 1445.7c-4.2-17.2 6.3-34.5 23.5-38.7 17.2-4.3 34.6 6.3 38.8 23.6 4.2 17.2-6.3 34.5-23.6 38.7-2.6.6-5.1 1-7.6 1-14.5-.1-27.6-10-31.1-24.6z" fill="#d71f28" opacity=".71"/><path d="m2384.1 1352.9c-17.6-2.3-29.9-18.4-27.6-36 2.3-17.6 18.4-29.9 36-27.6 17.6 2.3 29.9 18.4 27.6 36-2.2 16.1-16 27.9-31.7 27.9-1.5 0-2.9-.2-4.3-.3z" fill="#d71f28" opacity=".71"/><path d="m123.3 1324.6c-2.3-17.6 10-33.7 27.6-36 17.6-2.3 33.7 10 36 27.6 2.3 17.5-10 33.7-27.6 36-1.4.2-2.8.2-4.2.2-15.9 0-29.6-11.7-31.8-27.8z" fill="#d71f28" opacity=".71"/><path d="m2396.9 1233.7c-17.7-.5-31.7-15.2-31.2-32.9v-.1c.5-17.6 15.2-31.7 32.9-31.2 17.7.5 31.7 15.2 31.3 32.9s0 0-.1 0c-.4 17.4-14.7 31.2-32 31.2-.4.1-.6.1-.9.1z" fill="#d71f28" opacity=".71"/><path d="m113.7 1201.7c-.5-17.7 13.5-32.4 31.3-32.9 17.7-.4 32.4 13.6 32.9 31.3.4 17.7-13.6 32.4-31.3 32.9-.3 0-.6 0-.9 0-17.4-.1-31.6-13.9-32-31.3z" fill="#d71f28" opacity=".71"/><path d="m2362.7 1084.3c-1.4-17.6 11.8-33.1 29.4-34.5 17.6-1.4 33.1 11.7 34.6 29.4s0 0-.1 0c1.4 17.6-11.8 33.1-29.4 34.5-.9.1-1.7.1-2.6.1-16.6 0-30.6-12.7-31.9-29.5z" fill="#d71f28" opacity=".71"/><path d="m146.5 1113c-17.6-1.4-30.8-16.9-29.3-34.5 1.4-17.6 16.8-30.8 34.5-29.3 17.6 1.4 30.9 16.8 29.4 34.5-1.4 16.8-15.4 29.5-31.9 29.5-1-.1-1.9-.1-2.7-.2z" fill="#d71f28" opacity=".71"/><path d="m2347.3 969c-3.3-17.4 8.1-34.1 25.6-37.4 17.4-3.3 34.1 8.1 37.4 25.6 3.3 17.4-8.2 34.0999-25.6 37.4-2 .3-4 .6-6 .6-15.1-.1-28.5-10.8-31.4-26.2z" fill="#f9d310" opacity=".71"/><path d="m159 993.8c-17.4-3.3-28.8-20.1-25.5-37.5v.1c3.3-17.5 20-28.9001 37.4-25.6 17.4 3.3 28.9 20.1 25.6 37.5-2.9 15.4-16.4 26.1-31.5 26.1-2 0-4-.2-6-.6z" fill="#d71f28" opacity=".71"/><path d="m2319.5 855.9c-5.1-16.9 4.5-34.8 21.4-39.9 17-5.1 34.9 4.4 40 21.4 5.1 16.9-4.5 34.8-21.4 39.9-3.1 1-6.3 1.4001-9.3 1.4001-13.7-.0001-26.4-9.0001-30.7-22.8001z" fill="#d71f28" opacity=".71"/><path d="m184.1 876.6c-16.9-5.1-26.5-23-21.4-39.9 5.1-17 23-26.5 40-21.4001 16.9 5 26.5 23 21.4 39.9001-4.2 13.9-16.9 22.7999-30.7 22.7999-3-.0999-6.1-.4999-9.3-1.3999z" fill="#d71f28" opacity=".71"/><path d="m2279.9 746.5c-6.9-16.4.6-35.1 17-42.1 16.3-6.9 35.1.7 42 17.1 6.9 16.3-.7 35.1-17 42-4.1 1.8-8.3 2.6-12.5 2.6-12.5-.1-24.3-7.5-29.5-19.6z" fill="#d71f28" opacity=".71"/><path d="m221.7 762.7c-16.4-6.9-24-25.7-17-42 6.9-16.4 25.7-23.9 42-17 16.4 6.9 23.9 25.7 17 42-5.1 12.3-17.1 19.6-29.5 19.6-4.1-.1-8.4-.9-12.5-2.6z" fill="#ef404d" opacity=".71"/><path d="m2228.9 641.9c-8.7-15.5-3-35 12.4-43.6 15.5-8.5999 35-3 43.6 12.4001 8.6 15.5 3 35-12.4 43.5999-5 2.7001-10.3 4.1-15.6 4.1-11.3 0-22.2-6-28-16.5z" fill="#d71f28" opacity=".71"/><path d="m271.3 653.5c-15.5-8.7-21-28.1-12.4-43.6 8.7-15.5 28.1-21.1 43.6-12.4 15.5 8.6 21.1 28.1 12.4 43.6-5.9 10.5-16.8 16.4-28.1 16.4-5.3 0-10.6-1.3-15.5-4z" fill="#d71f28" opacity=".71"/><path d="m2167 543.2c-10.3-14.4-6.7-34.5 7.8-44.6 14.4-10.2 34.5-6.7 44.6 7.8 10.2 14.5 6.7 34.5-7.8 44.7-5.6 4-12 5.9-18.4 5.9-10.1-.2-20-4.9-26.2-13.8z" fill="#d71f28" opacity=".71"/><path d="m332.2 550.2c-14.4-10.2-17.9-30.2-7.7-44.7 10.2-14.5 30.2-18 44.7-7.7 14.5 10.2 17.9 30.2 7.8 44.7-6.3 8.8-16.2 13.5-26.3 13.5-6.4 0-12.9-1.8-18.5-5.8z" fill="#d71f28" opacity=".71"/><path d="m2095 451.6c-11.7-13.3-10.3-33.6 3-45.2 13.3-11.7 33.5-10.3 45.2 3 11.6 13.4 10.3 33.6-3 45.3-6.1 5.3-13.5 7.9-21.1 7.9-8.9 0-17.8-3.7-24.1-11z" fill="#ef404d" opacity=".71"/><path d="m403.8 454c-13.3-11.7-14.7-32-3-45.3 11.7-13.3 31.9-14.6 45.2-2.9 13.3 11.6 14.7 31.9 3 45.2-6.3 7.2-15.2 10.9-24.1 10.9-7.5 0-15-2.6-21.1-7.9z" fill="#f9d310" opacity=".9"/><path d="m2013.8 368.2c-13-12-13.8-32.3-1.8-45.4 12-13 32.3-13.8 45.3-1.8 13 12 13.8 32.3 1.8 45.4-6.3 6.8-14.9 10.3-23.6 10.3-7.7 0-15.5-2.8-21.7-8.5z" fill="#f9d310" opacity=".9"/><path d="m485 365.8c-12-13-11.1-33.3 1.8-45.3 13-12 33.3-11.1 45.3 1.8 12 13 11.2 33.3-1.8 45.3-6.2 5.7-13.9 8.5-21.7 8.5-8.6 0-17.2-3.4-23.6-10.3z" fill="#f9d310" opacity=".9"/><path d="m1924.2 293.7c-14.2-10.6-17.1-30.7-6.5-44.9 10.6-14.2 30.6-17.2 44.9-6.6 14.2 10.6 17.1 30.7 6.5 44.9-6.3 8.4-16 12.9-25.7 12.9-6.7.1-13.4-2-19.2-6.3z" fill="#f9d310" opacity=".9"/><path d="m575.1 286.8c-10.6-14.3-7.6-34.3 6.7-44.9 14.2-10.6 34.3-7.6 44.8 6.7 10.6 14.2 7.6 34.2-6.6 44.8-5.8 4.2-12.4 6.3-19.1 6.3-9.8 0-19.4-4.5-25.8-12.9z" fill="#d71f28" opacity=".71"/><path d="m1827.3 229.1c-15.2-9-20.3-28.6-11.3-43.8 9.1-15.3 28.7-20.4 43.9-11.3 15.3 9 20.4 28.7 11.3 43.9-6 10.1-16.7 15.7-27.7 15.7-5.5 0-11.1-1.4-16.2-4.5z" fill="#d71f28" opacity=".71"/><path d="m673.1 217.6c-9-15.2-3.9-34.9 11.3-43.8 15.2-9.1 35-4 43.9 11.3 9 15.2 3.9 34.9-11.3 43.8-5.1 3-10.7 4.5-16.3 4.5-10.9 0-21.6-5.6-27.6-15.8z" fill="#d71f28" opacity=".71"/><path d="m1724 175.3c-16.1-7.3-23.2-26.3-15.9-42.4 7.3-16.1 26.3-23.2 42.4-16h.1c16.1 7.4 23.2 26.4 15.9 42.5-5.4 11.9-17.1 18.8-29.2 18.8-4.4 0-8.9-.9-13.3-2.9z" fill="#d71f28" opacity=".71"/><path d="m777.8 159.2c-7.3-16.1-.2-35.1 15.9-42.5 16.2-7.3 35.2-.2 42.5 16 7.4 16.1.2 35.1-15.9 42.5-4.3 1.9-8.8 2.9-13.2 2.9-12.2 0-24-7.1-29.3-18.9z" fill="#d71f28" opacity=".71"/><path d="m1615.6 132.8c-16.8-5.5-25.9-23.7-20.4-40.5 5.6-16.8 23.7-26 40.6-20.4 16.8 5.5 25.9 23.70001 20.4 40.5-4.5 13.5-17 22-30.5 22-3.3.1-6.7-.5-10.1-1.6z" fill="#f9d310" opacity=".9"/><path d="m888.1 112.3c-5.6-16.8 3.5-34.9 20.4-40.6 16.8-5.5 35 3.5 40.5 20.40001 5.6 16.79999-3.5 34.89999-20.4 40.59999-3.3 1-6.7 1.6-10.1 1.6-13.4 0-26-8.5-30.4-22z" fill="#d71f28" opacity=".71"/><path d="m1503.3 102.2c-17.2-3.7-28.3-20.80001-24.5-38.1 3.7-17.3 20.8-28.3 38.1-24.6 17.3 3.8 28.3 20.8 24.6 38.2-3.3 15-16.5 25.2-31.3 25.2-2.3 0-4.6-.2-6.9-.7z" fill="#ef404d" opacity=".71"/><path d="m1002.8 77.5c-3.8-17.3 7.2-34.4 24.5-38.2 17.3-3.7 34.4 7.3 38.2 24.6 3.7 17.3-7.3 34.3-24.6 38.1-2.2.5-4.6.7-6.8.7-14.8 0-28.1-10.2-31.3-25.2z" fill="#f9d310" opacity=".9"/><path d="m1388.4 83.7c-17.6-1.80001-30.4-17.7-28.5-35.3 1.8-17.6 17.7-30.4 35.3-28.5 17.6 1.8 30.4 17.6 28.5 35.3-1.8 16.4-15.7 28.6-31.9 28.6-1.1.1-2.3 0-3.4-.1z" fill="#ef404d" opacity=".71"/><path d="m1120.5 55c-1.8-17.6 10.9-33.3 28.5-35.3 17.6-1.8 33.3 10.9 35.3 28.5 1.8 17.6-10.9 33.3-28.5 35.3-1.1.1-2.3.2-3.4.2-16.2 0-30.1-12.2-31.9-28.7z" fill="#ef404d" opacity=".71"/><path d="m1272.1 77.5c-17.8 0-32.1-14.3-32.1-32.1 0-17.7 14.3-32.1 32.1-32.1 17.7 0 32.1 14.4 32.1 32.1 0 17.7-14.4 32.1-32.1 32.1z" fill="#d71f28" opacity=".71"/><path d="m1273.4 2239.4c-.3 0-.6 0-1 0-17.7 0-32.1-14.3-32.1-32.1 0-17.7 14.3-32.1 32.1-32.1h.6 1.2c17.7 0 32.1 14.3 32.1 32 0 17.7-14.3 32.1-32.1 32.1-.2.1-.5.1-.8.1z" fill="#f9d310" opacity=".9"/><path d="m1148.6 2232.3c-17.6-2-30.2-17.9-28.2-35.5 2-17.6 17.9-30.2 35.5-28.1 17.6 2 30.2 17.9 28.2 35.5-1.9 16.4-15.8 28.4-31.8 28.4-1.3-.1-2.5-.2-3.7-.3z" fill="#d71f28" opacity=".71"/><path d="m1362.7 2204c-2.2-17.6 10.4-33.5 28.1-35.6 17.6-2.1 33.5 10.5 35.6 28.1 2.1 17.6-10.5 33.5-28.1 35.6h.1c-1.3.2-2.6.2-3.9.2-16.1 0-29.9-12.1-31.8-28.3z" fill="#d71f28" opacity=".71"/><path d="m1026.3 2211c-17.2-4.1-28-21.3-23.9-38.6 4-17.2 21.2-28 38.6-23.9 17.2 4 27.9 21.2 23.9 38.5-3.5 14.8-16.7 24.8-31.3 24.8-2.4 0-4.9-.2-7.3-.8z" fill="#d71f28" opacity=".71"/><path d="m1481.8 2186.6c-4.1-17.2 6.6-34.5 23.8-38.6 17.2-4.1 34.5 6.6 38.6 23.7 4.2 17.2-6.5 34.5-23.7 38.7-2.5.6-5 .9-7.5.9-14.5 0-27.7-10-31.2-24.7z" fill="#d71f28" opacity=".71"/><path d="m907.2 2175.6c-16.7-6.1-25.3-24.4-19.2-41.1 6.1-16.6 24.4-25.2 41.1-19.2 16.6 6 25.3 24.5 19.2 41-4.7 13.1-17 21.2-30.1 21.2-3.7 0-7.4-.6-11-1.9z" fill="#d71f28" opacity=".71"/><path d="m1598.2 2155.5c-6.1-16.7 2.4-35.1 19.1-41.2 16.6-6.1 35 2.5 41.1 19.1 6.1 16.6-2.5 35-19.1 41.1-3.6 1.4-7.4 2-11.1 2-13 0-25.3-8-30-21z" fill="#ef404d" opacity=".71"/><path d="m793.2 2126.5c-15.8-8-22.2-27.3-14.2-43 7.9-15.9 27.2-22.2 43-14.3 15.8 7.9 22.2 27.3 14.2 43-5.6 11.2-16.9 17.6-28.6 17.6-4.9 0-9.8-1-14.4-3.3z" fill="#d71f28" opacity=".71"/><path d="m1710 2110.9c-8-15.8-1.7-35.1 14.1-43 15.8-8 35.1-1.7 43.1 14.1 7.9 15.8 1.6 35.1-14.2 43-4.6 2.4-9.5 3.5-14.4 3.5-11.7 0-23-6.4-28.6-17.6z" fill="#d71f28" opacity=".71"/><path d="m685.8 2064.3c-14.8-9.8-18.8-29.7-9.1-44.5 9.8-14.7 29.7-18.8 44.5-9.1 14.8 9.8 18.8 29.7 9.1 44.4-6.2 9.4-16.3 14.4-26.8 14.4-6.2 0-12.3-1.7-17.7-5.2z" fill="#d71f28" opacity=".71"/><path d="m1815.9 2053.7c-9.8-14.7-5.7-34.6 9.1-44.5 14.8-9.7 34.6-5.7 44.4 9.1 9.8 14.8 5.7 34.7-9.1 44.5-5.4 3.6-11.5 5.3-17.6 5.3-10.4-.1-20.6-5.1-26.8-14.4z" fill="#f9d310" opacity=".9"/><path d="m586.4 1990c-13.6-11.5-15.3-31.7-3.9-45.2 11.4-13.5 31.6-15.3 45.1-3.8 13.5 11.4 15.3 31.6 3.8 45.1-6.3 7.5-15.4001 11.5-24.5 11.5-7.2-.1-14.5-2.6-20.5-7.6z" fill="#d71f28" opacity=".71"/><path d="m1914.5 1984.5c-11.5-13.5-9.7-33.7 3.9-45.2 13.6-11.4 33.7-9.7 45.1 3.8 11.5 13.5 9.7 33.7-3.8 45.2-6 5-13.3 7.5-20.6 7.5-9.2.1-18.3-3.8-24.6-11.3z" fill="#ef404d" opacity=".71"/><path d="m496.2 1904.7c-12.1-12.8-11.5-33.1 1.4-45.3 12.8-12.2 33.2-11.5 45.3 1.3 12.2 12.9 11.5 33.2-1.3 45.4-6.3 5.9-14.0999 8.7-22 8.7-8.6 0-17.1-3.4-23.4-10.1z" fill="#d71f28" opacity=".71"/><path d="m2004.4 1904.4c-12.9-12.2-13.6-32.5-1.4-45.4 12.2-12.9 32.5-13.5 45.4-1.4 12.9 12.1 13.6 32.4 1.4 45.3-6.2 6.7-14.8 10.1-23.3 10.1-8 .1-15.9-2.8-22.1-8.6z" fill="#ef404d" opacity=".71"/><path d="m416.3 1809.8c-10.7-14.1-7.8-34.2 6.4-44.9 14.2-10.6 34.3-7.7 44.9 6.5 10.6 14.2 7.7 34.2-6.5 44.9-5.7 4.3-12.4 6.4-19.2 6.4-9.7 0-19.3-4.5-25.6-12.9z" fill="#d71f28" opacity=".71"/><path d="m2084.5 1814.4c-14.2-10.6-17.2-30.6-6.7-44.9 10.6-14.2 30.7-17.2 44.9-6.6 14.2 10.5 17.2 30.6 6.7 44.8-6.3 8.5-16 13-25.8 13-6.7 0-13.3-2-19.1-6.3z" fill="#d71f28" opacity=".71"/><path d="m347.7 1706.3c-8.9-15.2-3.7-34.9 11.6-43.8 15.3-8.9 34.9-3.8 43.9 11.5 8.9 15.3 3.7 34.9-11.6 43.8-5 3-10.6 4.3-16.1 4.3-11.1.1-21.8-5.6-27.8-15.8z" fill="#d71f28" opacity=".71"/><path d="m2153.7 1715.7c-15.4-8.8-20.6-28.4-11.8-43.8 8.8-15.3 28.4-20.6 43.8-11.8 15.3 8.8 20.6 28.5 11.8 43.8-5.9 10.3-16.8 16.1-27.8 16.1-5.5.1-11-1.3-16-4.3z" fill="#f9d310" opacity=".9"/><path d="m291.7 1595.6c-7.1-16.3.4-35.2 16.6-42.2 16.3-7.1 35.1.4 42.2 16.7 7.1 16.2-.3 35.1-16.6 42.2-4.2 1.8-8.5 2.6-12.7 2.6-12.5-.1-24.3-7.3-29.5-19.3z" fill="#d71f28" opacity=".71"/><path d="m2210.9 1609.7c-16.3-7-23.8-25.8-16.8-42.1 7-16.3 25.8-23.8 42.1-16.8 16.3 7 23.8 25.9 16.8 42.2-5.2 12.1-17.1 19.4-29.5 19.4-4.2-.1-8.5-.9-12.6-2.7z" fill="#f9d310" opacity=".9"/><path d="m249 1478.9c-5.1-17 4.5-34.9 21.5-40 16.9-5 34.9 4.6 39.9 21.5 5.1 17-4.5 34.9-21.5 40-3 .9-6.2 1.4-9.2 1.4-13.8 0-26.6-9-30.7-22.9z" fill="#d71f28" opacity=".71"/><path d="m2255.4 1497.7c-17-5-26.7-22.8-21.6-39.8 5.1-17 22.9-26.7 39.8-21.6 17 5 26.7 22.9 21.6 39.9-4.1 13.9-16.9 22.9-30.7 22.9-3 0-6-.4-9.1-1.4z" fill="#d71f28" opacity=".71"/><path d="m220.3 1358.1c-3-17.5 8.6-34.1 26.1-37.2 17.4-3 34.1 8.6 37.1 26.1 3 17.4-8.6 34.1-26 37.1-1.9.3-3.8.5-5.6.5-15.3 0-28.9-10.9-31.6-26.5z" fill="#d71f28" opacity=".71"/><path d="m2286.4 1381.4c-17.4-3-29.1-19.6-26.1-37.1 3-17.4 19.6-29.1 37-26.1 17.5 3 29.2 19.6 26.1 37.1-2.7 15.6-16.3 26.5-31.6 26.5-1.6 0-3.4-.1-5.4-.4z" fill="#d71f28" opacity=".71"/><path d="m205.9 1234.9c-1-17.7 12.5-32.9 30.1-33.9 17.7-1 32.9 12.5 33.9 30.1v.1c1 17.6-12.5 32.8-30.1 33.8-.6 0-1.3.1-1.9.1-16.8 0-30.9-13.2-32-30.2z" fill="#d71f28" opacity=".71"/><path d="m2303.8 1262.2c-17.7-1-31.2-16.2-30.2-33.8 1-17.7 16.1-31.2 33.8-30.2 17.6 1 31.2 16.1 30.2 33.8-1 17.1-15.1 30.2-32 30.2-.6 0-1.1 0-1.8 0z" fill="#d71f28" opacity=".71"/><path d="m236.2 1144.6c-17.7-1-31.2-16.2-30.2-33.9 1-17.6 16.2-31.2 33.8-30.1 17.7 1 31.3 16.2 30.2 33.8-1 17.1-15.1 30.2-32 30.2-.6 0-1.3 0-1.8 0z" fill="#d71f28" opacity=".71"/><path d="m2273.4 1111.7c-1-17.6 12.4-32.9 30.1-33.9 17.6-1 32.9 12.4 33.9 30.1 1 17.6-12.4 32.9-30.1 33.9-.6 0-1.3 0-1.9 0-16.8 0-30.9-13.1-32-30.1z" fill="#d71f28" opacity=".71"/><path d="m246.3 1024.6c-17.5-3-29.1-19.7-26.1-37.1 3-17.5 19.7-29.2 37.1-26.1 17.5 3 29.1 19.7 26.1 37.1-2.6 15.6-16.2 26.6-31.5 26.6-2 0-3.8-.2-5.6-.5z" fill="#d71f28" opacity=".71"/><path d="m2259.7 995.8c-3-17.4 8.6-34.1 26-37.2 17.5-3 34.1 8.5 37.2 26 3 17.4-8.5 34.1-26 37.2-1.9.3-3.8.5-5.6.5-15.3 0-28.8-10.9-31.6-26.5z" fill="#f9d310" opacity=".71"/><path d="m270.1 906.5c-17-5-26.6-22.9-21.6-39.8 5-17 22.8-26.7 39.8-21.6 17 5 26.6 22.9001 21.6 39.9001-4.1 13.9-16.8 22.9-30.7 22.9-3-.0001-6-.5001-9.1-1.4001z" fill="#d71f28" opacity=".71"/><path d="m2232.6 882.4c-5.1-16.9 4.4-34.8 21.4-39.9 16.9-5.1 34.8 4.4 40 21.4 5 16.9-4.5 34.9-21.5 39.9-3.1 1-6.2 1.4001-9.3 1.4001-13.6.0999-26.4-8.9001-30.6-22.8001z" fill="#d71f28" opacity=".71"/><path d="m307.7 792c-16.3-7-23.8-25.8-16.8-42.1 7-16.3 25.8-23.8 42.1-16.8 16.3 7.1 23.8 25.9001 16.8 42.2-5.2 12.1-17 19.4001-29.4 19.4001-4.3-.1001-8.6-.9001-12.7-2.7001z" fill="#f9d310" opacity=".71"/><path d="m2192.4 773c-7.1-16.2.4-35.1 16.6-42.2 16.3-7.1 35.2.4 42.2 16.6 7.1 16.3-.4 35.0999-16.6 42.2-4.2 1.8-8.6 2.7-12.8 2.7-12.3 0-24.1-7.2-29.4-19.3z" fill="#d71f28" opacity=".71"/><path d="m358.3 682.7c-15.4-8.8-20.6-28.5-11.8-43.8 8.8-15.3 28.5-20.6 43.8-11.8 15.4 8.9001 20.6 28.5 11.8 43.8-5.9 10.3-16.7 16-27.8 16-5.5.1-10.9-1.3-16-4.2z" fill="#d71f28" opacity=".71"/><path d="m2139.7 668.9c-8.9-15.3-3.7-34.9 11.6-43.8 15.3-8.9 34.9-3.7 43.8 11.6 8.9 15.3 3.7 35-11.6 43.8-5 3-10.6 4.3-16.1 4.3-10.9.1-21.7-5.6-27.7-15.9z" fill="#d71f28" opacity=".71"/><path d="m421.3 580c-14.2-10.6-17.2-30.6-6.6-44.9 10.6-14.2 30.6-17.2 44.8-6.6 14.2 10.6 17.2 30.7 6.7 44.9-6.3 8.5-16 12.9-25.8 12.9-6.7 0-13.4-2-19.1-6.3z" fill="#d71f28" opacity=".71"/><path d="m2075.4 571.7c-10.6-14.2-7.7-34.3 6.5-44.9 14.2-10.7 34.2-7.8 44.9 6.4 10.6 14.2 7.7 34.3-6.5 44.9-5.8 4.3-12.5 6.4001-19.2 6.4001-9.8-.0001-19.4-4.4001-25.7-12.8001z" fill="#d71f28" opacity=".71"/><path d="m495.8 485.3c-12.9-12.1-13.5-32.5-1.4-45.3 12.1-12.9 32.5-13.5 45.3-1.4 12.9 12.1 13.6 32.4 1.4 45.3-6.2 6.7-14.7 10.1-23.3 10.1-7.9 0-15.8-2.8-22-8.7z" fill="#d71f28" opacity=".71"/><path d="m2000.2 482.4c-12.1-12.8-11.6-33.2 1.3-45.3 12.8-12.2 33.2-11.6 45.4 1.2 12.1 12.9 11.5 33.2-1.3 45.4-6.2 5.9-14.1 8.7-22 8.7-8.6 0-17.1-3.3-23.4-10z" fill="#ef404d" opacity=".71"/><path d="m580.7 399.9c-11.4-13.5-9.6-33.7 3.9-45.1 13.5-11.4 33.7-9.7 45.1 3.8 11.5 13.5 9.7 33.7-3.9 45.2-6 5.1-13.3 7.5-20.7 7.5-9 0-18.1-3.9-24.4-11.4z" fill="#d71f28" opacity=".71"/><path d="m1915.3 402.4c-13.6-11.4-15.4-31.6-4-45.2 11.4-13.5 31.6-15.3 45.2-3.9 13.6 11.4 15.3 31.6 3.9 45.1-6.3 7.6-15.4 11.5-24.6 11.5-7.2 0-14.5-2.4-20.5-7.5z" fill="#f9d310" opacity=".9"/><path d="m674.9 324.8c-9.7-14.8-5.7-34.6 9.1-44.4 14.7-9.8 34.6-5.7 44.4 9.1 9.8 14.8 5.7 34.7-9.1 44.5-5.4 3.5-11.5999 5.3-17.7 5.3-10.3 0-20.6-5.1-26.7-14.5z" fill="#f9d310" opacity=".9"/><path d="m1821.7 332.8c-14.8-9.8-18.9-29.7-9.1-44.4 9.7-14.8 29.6-18.9 44.3-9.2 14.8 9.8 18.9 29.7 9.2 44.4-6.2 9.4-16.4 14.4-26.9 14.4-6 0-12.1-1.7-17.5-5.2z" fill="#d71f28" opacity=".71"/><path d="m777.1 261.3c-8-15.9-1.7-35.1 14.1-43.1 15.9-7.9 35.0999-1.6 43.0999 14.2 7.9001 15.8 1.6 35.1-14.2 43-4.6 2.4-9.6 3.4-14.4 3.4-11.5999 0-22.9999-6.4-28.5999-17.5z" fill="#d71f28" opacity=".71"/><path d="m1720.6 274.4c-15.8-7.9-22.2-27.3-14.3-43 7.9-15.9 27.3-22.2 43-14.3 15.8 7.9 22.2 27.2 14.3 43-5.6 11.1-16.9 17.6-28.7 17.6-4.8.1-9.7-1-14.3-3.3z" fill="#d71f28" opacity=".71"/><path d="m886 210c-6.1-16.7 2.5-35 19.1-41.1 16.7-6.1 35 2.5 41.1 19.1 6.0999 16.6-2.4001 35-19.1 41.1-3.6 1.4-7.4 2-11 2-13-.1-25.4-8.2-30.1-21.1z" fill="#ef404d" opacity=".71"/><path d="m1613.4 228.2c-16.7-6-25.3-24.4-19.2-41 6.1-16.7 24.5-25.3 41.1-19.2 16.6 6 25.2 24.5 19.2 41-4.7 13.1-17 21.2-30.1 21.2-3.7 0-7.4-.7-11-2z" fill="#f9d310" opacity=".9"/><path d="m1000.2 171.7c-4.1-17.2 6.6-34.5 23.7-38.6 17.2-4.1 34.6 6.6 38.6 23.7 4.1 17.3-6.6 34.5-23.8 38.6-2.5.6-5 .9-7.4.9-14.4 0-27.6-9.9-31.1-24.6z" fill="#d71f28" opacity=".71"/><path d="m1501.6 195c-17.3-4.1-28-21.3-23.9-38.6 4-17.2 21.2-28 38.5-23.9 17.2 4 28 21.3 23.9 38.6-3.4 14.7-16.6 24.7-31.2 24.7-2.4 0-4.9-.3-7.3-.8z" fill="#f9d310" opacity=".9"/><path d="m1118.1 147c-2-17.6 10.6-33.5 28.1-35.5 17.6-2.1 33.5 10.5 35.6 28.1 2.1 17.6-10.5 33.5-28.1 35.6-1.2.2-2.5.2-3.8.2-16.1 0-29.9-12-31.8-28.4z" fill="#f9d310" opacity=".9"/><path d="m1386.7 174.9c-17.6-2-30.2-17.9-28.2-35.5 2-17.6 17.9-30.2 35.5-28.1 17.6 2 30.2 17.9 28.2 35.4-1.9 16.4-15.7 28.5-31.8 28.5-1.3 0-2.5-.1-3.7-.3z" fill="#ef404d" opacity=".71"/><path d="m1238 136.4c0-17.7 14.3-32.1 32.1-32.1 17.7 0 32.1 14.3 32.1 32.1 0 17.7-14.3 32.1-32.1 32.1-17.7-.1-32.1-14.5-32.1-32.1z" fill="#d71f28" opacity=".71"/><path d="m1240.4 2116.4c0-17.7 14.3-32.1 32.1-32.1h.8.8c17.7 0 32.1 14.3 32.1 32.1.1 17.6-14.3 32.1-32 32.1-.2 0-.6 0-.8 0-.3 0-.6 0-.9 0-17.8 0-32.1-14.3-32.1-32.1z" fill="#f9d310" opacity=".9"/><path d="m1147.6 2140.6c-17.6-2.2-30.1-18.3-27.8-35.9 2.2-17.6 18.3-30 35.8-27.7 17.6 2.2 30.1 18.3 27.8 35.8-2.1 16.2-15.9 28.1-31.8 28.1-1.2 0-2.6-.1-4-.3z" fill="#d71f28" opacity=".71"/><path d="m1363 2112.7c-2.3-17.6 10.1-33.6 27.7-35.9 17.6-2.2 33.7 10.1 35.9 27.7 2.3 17.6-10.1 33.7-27.7 36-1.4.2-2.8.2-4.2.2-15.8-.1-29.6-11.8-31.7-28z" fill="#f9d310" opacity=".9"/><path d="m1024.7 2116.9c-17.2-4.4-27.4001-22-22.9-39 4.5-17.2 22-27.4 39.1-23 17.2 4.5 27.4 22 22.9 39.1-3.8 14.4-16.8 24-31 24-2.7 0-5.4-.4-8.1-1.1z" fill="#d71f28" opacity=".71"/><path d="m1482.5 2093.5c-4.5-17.2 5.7-34.7 22.8-39.2 17.1-4.6 34.6 5.7 39.2 22.8 4.5 17.2-5.7 34.7-22.8 39.2-2.7.7-5.4 1.1-8.2 1.1-14.1 0-27.1-9.5-31-23.9z" fill="#d71f28" opacity=".71"/><path d="m905.8 2077.6c-16.4-6.6-24.3-25.3-17.7-41.7 6.7-16.4 25.3-24.4 41.8-17.7 16.4 6.6 24.4 25.2 17.7 41.7-5 12.5-17.1 20.1-29.7 20.1-4.1 0-8.1-.8-12.1-2.4z" fill="#d71f28" opacity=".71"/><path d="m1598.6 2059c-6.7-16.4 1.2-35.1 17.6-41.8 16.4-6.7 35.1 1.2 41.8 17.6 6.7 16.4-1.2 35.1-17.6 41.8-3.9 1.6-8.1 2.4-12.1 2.4-12.6 0-24.6-7.5-29.7-20z" fill="#f9d310" opacity=".9"/><path d="m793.1 2023.3c-15.5-8.7-20.9-28.2-12.2-43.7 8.7-15.4 28.3-20.8 43.7-12.1 15.4 8.7 20.8 28.2 12.1 43.7-5.8 10.4-16.8 16.3-27.9001 16.3-5.3999 0-10.6999-1.4-15.6999-4.2z" fill="#ef404d" opacity=".71"/><path d="m1709.2 2010c-8.7-15.5-3.3-35 12.1-43.8 15.4-8.7 35-3.3 43.7 12.1 8.7 15.4 3.4 34.9-12.1 43.7-5 2.9-10.4 4.2-15.7 4.2-11.2 0-22.1-5.9-28-16.2z" fill="#d71f28" opacity=".71"/><path d="m688.3 1954.8c-14.2-10.6-17.1-30.7-6.5-44.9 10.7-14.1 30.8-17 44.9-6.4 14.2 10.7 17.1 30.7 6.4 44.9-6.2 8.4-15.9 12.8-25.5999 12.8-6.7001.1-13.4001-2-19.2001-6.4z" fill="#ef404d" opacity=".71"/><path d="m1812.7 1947.1c-10.7-14.1-7.8-34.2 6.3-44.9 14.2-10.6 34.3-7.8 45 6.4 10.6 14.2 7.7 34.3-6.4 44.9-5.8 4.3-12.6 6.4-19.2 6.4-9.8 0-19.5-4.4-25.7-12.8z" fill="#d71f28" opacity=".71"/><path d="m593.2 1873.6c-12.7-12.3-13-32.6-.6-45.4 12.3-12.7 32.6-13 45.4001-.6 12.7 12.3 13 32.6.5999 45.4-6.3 6.4-14.7 9.7-23 9.7-8.1 0-16.2-3-22.4-9.1z" fill="#d71f28" opacity=".71"/><path d="m1907.3 1871.6c-12.3-12.7-12.1-33 .6-45.4 12.7-12.3 32.9-12 45.3.6 12.3 12.7 12.1 33-.6 45.4s0 0-.1 0c-6.2 6-14.3 9.1-22.3 9.1-8.3 0-16.7-3.3-22.9-9.7z" fill="#d71f28" opacity=".71"/><path d="m509.1 1781.1c-11.1-13.9-8.9-34 5-45.1 13.8-11.1 34-8.8 45 5 11.1 13.9 8.8 34.1-5 45.1-5.9 4.7-13 7-20 7-9.4 0-18.7-4.1-25-12z" fill="#d71f28" opacity=".71"/><path d="m1991.5 1784.6c-13.9-11.1-16.2-31.3-5.1-45.1v.1c11-13.9 31.2-16.2 45-5.2 13.9 11.1 16.1 31.3 5.1 45v.1c-6.3 7.9-15.7 12.1-25.2 12.1-6.9 0-13.9-2.4-19.8-7z" fill="#ef404d" opacity=".71"/><path d="m437.2 1678.7c-9.3-15.1-4.5-34.8 10.6-44.1 15.1-9.2 34.9-4.4 44.1 10.7 9.2 15.1 4.5 34.9-10.7 44.1-5.2 3.2-11 4.7-16.7 4.7-10.8 0-21.3-5.5-27.3-15.4z" fill="#d71f28" opacity=".71"/><path d="m2064 1687.5c-15.1-9.1-20-28.9-10.8-44 9.1-15.2 28.9-20 44-10.9 15.2 9.2 20 28.9 10.8 44.1-6 9.9-16.6 15.5-27.4 15.5-5.7 0-11.4-1.6-16.6-4.7z" fill="#d71f28" opacity=".71"/><path d="m378.9 1567.9c-7.3-16.1 0-35.1 16.2-42.3 16.2-7.2 35.1 0 42.3 16.2 7.2 16.2 0 35.2-16.2 42.4-4.3 1.8-8.7 2.7-13.1 2.7-12.2 0-23.9-7-29.2-19z" fill="#d71f28" opacity=".71"/><path d="m2123.5 1582c-16.2-7.1-23.5-26.1-16.4-42.2 7.1-16.3 26.1-23.6 42.2-16.4 16.2 7.1 23.6 26.1 16.4 42.2-5.3 12-17.1 19.2-29.4 19.2-4.2 0-8.6-.9-12.8-2.8z" fill="#d71f28" opacity=".71"/><path d="m335.4 1450.6c-5-17 4.6-34.9 21.6-39.9 17-5.1 34.9 4.6 39.9 21.6 5 17-4.6 34.9-21.6 39.9-3 .9-6.2 1.4-9.2 1.3-13.8-.1-26.5-9.1-30.7-22.9z" fill="#d71f28" opacity=".71"/><path d="m2168.9 1469.7c-16.9-5-26.7-22.8-21.6-39.8 5-17 22.8-26.7 39.8-21.7 17 5 26.7 22.8 21.7 39.8-4.1 13.9-16.9 23-30.7 23-3.1 0-6.1-.4-9.2-1.3z" fill="#d71f28" opacity=".71"/><path d="m307.5 1328.5c-2.8-17.5 9.1-33.9 26.5-36.7 17.5-2.9 34 9.1 36.8 26.5 2.8 17.5-9.1 33.9-26.5 36.7-1.8.3-3.4.5-5.1.5-15.5 0-29.1-11.2-31.7-27z" fill="#d71f28" opacity=".71"/><path d="m2199.6 1352.5c-17.6-2.7-29.4-19.2-26.7-36.6 2.8-17.5 19.2-29.4 36.7-26.7 17.5 2.8 29.4 19.2 26.6 36.7-2.5 15.8-16.1 27-31.6 27-1.6 0-3.3 0-5-.4z" fill="#d71f28" opacity=".71"/><path d="m295.5 1204c-.6-17.7 13.3-32.5 31-33.1 17.7-.6 32.5 13.3 33.1 31 .6 17.7-13.4 32.5-31 33.1-.4 0-.7 0-1 0-17.2 0-31.5-13.7-32.1-31z" fill="#d71f28" opacity=".71"/><path d="m2214.9 1232.5c-17.6-.5-31.6-15.3-31-33 .5-17.7 15.3-31.6 33-31 17.7.5 31.6 15.3 31 33-.5 17.3-14.7 31-32.1 31-.2 0-.5 0-.9 0z" fill="#d71f28" opacity=".71"/><path d="m328.4 1113.9c-17.6-1.7-30.6-17.3-28.9-35 1.7-17.6 17.3-30.5 35-28.9 17.6 1.6 30.6 17.3 28.9 34.9-1.6 16.6-15.5 29-31.9 29-1.1.2-2.1.1-3.1 0z" fill="#d71f28" opacity=".71"/><path d="m2180 1082.6c-1.7-17.6 11.2-33.3 28.9-35 17.6-1.8 33.3 11.1 35 28.8 1.7 17.6-11.2 33.3-28.9 35-1 .1-2.1.2-3.1.2-16.3 0-30.2-12.4-31.9-29z" fill="#d71f28" opacity=".71"/><path d="m343.4 993.7c-17.2-3.8-28.1-21.1-24.2-38.3 3.9-17.3 21.1-28.1 38.4-24.2 17.2 3.9 28.1 21.1 24.2 38.3-3.4 14.9-16.6 25-31.3 25-2.3.1-4.7-.2-7.1-.8z" fill="#d71f28" opacity=".71"/><path d="m2161.2 967.3c-4-17.3 6.7-34.5 24-38.5 17.3-3.9 34.5 6.8 38.5 24 4 17.2-6.8 34.5-24 38.5-2.4.6-4.8.8-7.2.8-14.7 0-27.9-10-31.3-24.8z" fill="#d71f28" opacity=".71"/><path d="m373.7 876.5c-16.6-6.1-25.1-24.5-19-41.2v.1c6.1-16.7 24.5-25.3 41.1-19.2 16.6 6.0999 25.2 24.5 19.1 41.2-4.8 13-17.1 21-30.1 21-3.7 0-7.4-.6-11.1-1.9z" fill="#d71f28" opacity=".71"/><path d="m2127.6 855.3c-6.2-16.6 2.3-35 18.9-41.2 16.6-6.2 35 2.2 41.2 18.9s0 0 0-.1c6.2 16.6-2.3 35.1-18.9 41.3-3.7 1.4-7.5 2-11.1 2-13 0-25.3-8-30.1-20.9z" fill="#d71f28" opacity=".71"/><path d="m418.9 764c-15.7-8.2-21.8-27.6-13.6-43.2s0 0 0-.1c8.2-15.6 27.6-21.8 43.2-13.5 15.7 8.2 21.8 27.5 13.6 43.2-5.7 11-16.9 17.2-28.5 17.2-4.9 0-10-1.1-14.7-3.6z" fill="#ef404d" opacity=".71"/><path d="m2080 748.6c-8.3-15.6-2.2-35 13.5-43.3 15.6-8.3 35-2.2 43.3 13.5 8.3 15.6 2.2 35-13.5 43.3-4.7 2.5-9.9 3.7-14.9 3.7-11.5 0-22.6-6.3-28.4-17.2z" fill="#d71f28" opacity=".71"/><path d="m478.1 658.4c-14.5-10.2-18.1-30.1-7.9-44.7 10.1-14.5 30.1-18.1 44.7-7.9 14.5 10.1 18 30.1 7.9 44.6-6.2 9-16.2 13.8-26.3999 13.8-6.4001-.1-12.7001-2-18.3001-5.8z" fill="#d71f28" opacity=".71"/><path d="m2019.1 648.8c-10.2-14.4-6.7-34.5 7.9-44.7 14.5-10.2 34.5-6.6 44.7 7.9 10.2 14.5 6.7 34.5-7.9 44.7-5.5 3.9-12 5.9-18.4 5.9-10.1-.1-20-4.9-26.3-13.8z" fill="#d71f28" opacity=".71"/><path d="m550.3 561.1c-13.1-11.9-14.1-32.1-2.2-45.3 11.9-13.1 32.2-14.1 45.3-2.2 13.0999 11.9 14.0999 32.2 2.2 45.3-6.3 7-15.1 10.5999-23.8 10.5999-7.6.0001-15.3-2.7999-21.5-8.3999z" fill="#ef404d" opacity=".71"/><path d="m1946 557.6c-11.9-13.1-10.9-33.4 2.2-45.3 13.1-11.9 33.3-11 45.3 2.1 11.9 13.0999 11 33.3-2.2 45.3-6.1 5.5999-13.9 8.2999-21.6 8.2999-8.6.0001-17.4-3.4999-23.7-10.3999z" fill="#d71f28" opacity=".71"/><path d="m634.3 473.9c-11.5-13.5-9.9-33.7 3.5-45.2 13.5-11.5 33.7-9.9 45.2 3.5 11.5 13.5 9.9 33.7-3.5 45.2-6.1 5.2-13.5 7.7-20.8 7.7-9.1 0-18.1-3.8-24.4-11.2z" fill="#d71f28" opacity=".71"/><path d="m1861.9 476.3c-13.5-11.5-15.1-31.7-3.6-45.2 11.5-13.5 31.7-15.2 45.2-3.7 13.5 11.5 15.1 31.7 3.6 45.2-6.3 7.5-15.3 11.3-24.4 11.3-7.3 0-14.7-2.4-20.8-7.6z" fill="#ef404d" opacity=".71"/><path d="m728.6 398.1c-9.7-14.8-5.5-34.7 9.3-44.4 14.8-9.7 34.7-5.5 44.4 9.3 9.7 14.8 5.5 34.7-9.3 44.4-5.4 3.5-11.5 5.2-17.6 5.2-10.3 0-20.6-5.1-26.8-14.5z" fill="#d71f28" opacity=".71"/><path d="m1768.2 406.4c-14.8-9.6-19.1-29.5-9.4-44.3 9.7-14.8 29.5-19.1 44.4-9.4 14.8 9.6 19 29.5 9.4 44.3-6.2 9.5-16.4 14.6-26.9 14.6-6 0-12-1.7-17.5-5.2z" fill="#ef404d" opacity=".71"/><path d="m831.9 334.9c-7.7-15.9-1-35.1 14.9-42.8 15.9001-7.7 35.1-1 42.8 14.9 7.7 16 1 35.1-14.9 42.8h.1c-4.6 2.2-9.3 3.2-14 3.2-11.9 0-23.4-6.6-28.9-18.1z" fill="#ef404d" opacity=".71"/><path d="m1666.3 349c-15.9-7.6-22.7-26.9-15-42.8 7.7-16 26.8-22.6 42.8-15 15.9 7.7 22.7 26.9 15 42.8-5.5 11.5-17 18.2-28.9 18.2-4.7 0-9.4-1.1-13.9-3.2z" fill="#d71f28" opacity=".71"/><path d="m942.3 285.6c-5.6-16.8 3.4-34.9 20.3-40.6 16.8-5.6 35 3.5 40.6 20.3 5.6 16.8-3.5 34.9-20.3 40.6-3.4001 1.1-6.8 1.7-10.2 1.7-13.4-.1-25.9-8.6-30.4-22z" fill="#d71f28" opacity=".71"/><path d="m1557.9 305.2c-16.8-5.5-25.9-23.7-20.4-40.5 5.5-16.8 23.7-26 40.5-20.4 16.8 5.6 26 23.7 20.4 40.6-4.5 13.5-17 22-30.5 22-3.3-.1-6.7-.6-10-1.7z" fill="#f9d310" opacity=".9"/><path d="m1058.3 250.8c-3.4-17.4 7.9-34.2 25.3-37.6 17.4-3.4 34.2 7.9 37.6 25.3 3.4 17.4-7.9 34.2-25.3 37.6-2.1.4-4.2.6-6.2.6-15 0-28.4-10.6-31.4-25.9z" fill="#f9d310" opacity=".9"/><path d="m1444.8 275.8c-17.4-3.4-28.8-20.2-25.4-37.6 3.4-17.4 20.1-28.8 37.5-25.4 17.4 3.4 28.8 20.1 25.5 37.6-3 15.3-16.4 26-31.5 26-2-.1-4-.2-6.1-.6z" fill="#d71f28" opacity=".71"/><path d="m1177.8 231.2c-1.1-17.6 12.3-32.9 30-34.1 17.6-1.1 32.9 12.3 34.1 30 1.1 17.6-12.3 32.9-30 34.1-.7 0-1.4.1-2.1.1-16.8 0-30.9-13.1-32-30.1z" fill="#d71f28" opacity=".71"/><path d="m1328.8 261c-17.6-1-31.1-16.3-30-34 1.1-17.6 16.4-31.1 34-30 17.7 1.1 31.1 16.4 30.1 34-1.1 17-15.2 30.1-32 30.1-.8 0-1.4 0-2.1-.1z" fill="#d71f28" opacity=".71"/><path d="m1240.4 2025.5c0-17.7 14.3-32.1 32.1-32.1.2 0 .5.1.7.1.2 0 .5-.1.7-.1 17.7 0 32.1 14.3 32.1 32.1.1 17.7-14.3 32.1-32 32.1-.2 0-.5 0-.7 0-.2 0-.5 0-.8 0v.1c-17.8 0-32.1-14.4-32.1-32.2z" fill="#d71f28" opacity=".71"/><path d="m1149.2 2049.1c-17.6-2.4-29.8-18.6-27.4-36.1 2.5-17.6 18.7-29.8 36.2-27.4h-.1c17.6 2.4 29.8 18.6 27.4 36.1-2.2 16-15.9 27.7-31.7 27.7-1.4 0-2.9-.1-4.4-.3z" fill="#d71f28" opacity=".71"/><path d="m1360.9 2021.6c-2.5-17.5 9.7-33.7 27.3-36.2 17.6-2.5 33.7 9.7 36.2 27.3 2.5 17.6-9.7 33.8-27.2 36.2-1.5.2-3.1.3-4.5.3-15.7 0-29.5-11.6-31.8-27.6z" fill="#f9d310" opacity=".9"/><path d="m1028.3 2023.7c-17-4.8-26.9-22.6-22-39.6 4.8-17.1 22.6-26.9 39.6-22 17 4.8 26.9 22.6 22 39.6-4 14.1-16.8 23.2-30.8 23.2-2.9 0-5.9-.4-8.8-1.2z" fill="#ef404d" opacity=".71"/><path d="m1478.3 2001.1c-4.9-17 4.9-34.8 22-39.7 17-4.9 34.7 4.9 39.7 21.9 4.9 17.1-4.9 34.9-22 39.8-3 .9-5.9 1.3-8.9 1.3-13.9-.1-26.7-9.2-30.8-23.3z" fill="#d71f28" opacity=".71"/><path d="m912 1981.5c-16.1-7.2-23.4-26.1-16.2-42.3 7.2-16.2 26.1-23.5 42.3-16.3 16.2 7.2 23.4 26.2 16.2 42.3-5.3 11.9-17 19.1-29.3 19.1-4.2 0-8.7-.8-13-2.8z" fill="#ef404d" opacity=".71"/><path d="m1591.6 1964.4c-7.2-16.2 0-35.2 16.1-42.4 16.2-7.3 35.2 0 42.4 16.1 7.3 16.2.1 35.2-16.1 42.4-4.3 1.9-8.7 2.8-13.2 2.8-12.1 0-23.8-7.1-29.2-18.9z" fill="#d71f28" opacity=".71"/><path d="m803 1923.4c-15.1-9.4-19.6-29.2-10.2-44.2 9.4-15 29.2-19.6 44.2-10.2 15 9.5 19.6 29.2 10.2 44.2-6.1 9.7-16.5 15-27.3 15-5.7.1-11.7-1.5-16.9-4.8z" fill="#d71f28" opacity=".71"/><path d="m1698.7 1912.1c-9.5-15-5-34.8 10-44.2v.1c15-9.5 34.8-5 44.3 10 9.4 15 4.9 34.8-10.1 44.2-5.3 3.3-11.2 4.9-17.1 4.9-10.7 0-21-5.3-27.1-15z" fill="#d71f28" opacity=".71"/><path d="m703.2 1850.6c-13.6-11.5-15.3-31.7-3.9-45.2 11.4-13.5 31.6-15.3 45.1-3.8 13.5999 11.4 15.3 31.6 3.9 45.1-6.3 7.5-15.5 11.5-24.6 11.5-7.2 0-14.5-2.5-20.5-7.6z" fill="#d71f28" opacity=".71"/><path d="m1797.4 1845.4c-11.4-13.5-9.7-33.7 3.8-45.1 13.6-11.5 33.7-9.7 45.2 3.8 11.4 13.5 9.7 33.7-3.9 45.1-6 5.1-13.3 7.6-20.7 7.6-8.9.1-18.1-3.8-24.4-11.4z" fill="#d71f28" opacity=".71"/><path d="m614.4 1764.8c-11.9-13.1-10.8-33.4 2.3-45.3 13.1-11.9 33.4-10.8 45.3 2.3 11.9 13.1 10.8 33.4-2.3 45.3-6.2 5.5-13.9 8.3-21.5 8.3-8.7 0-17.4-3.6-23.8-10.6z" fill="#d71f28" opacity=".71"/><path d="m1886 1765.8c-13.1-11.9-14.3-32.1-2.4-45.3 11.8-13.1 32.1-14.3 45.2-2.4 13.2 11.8 14.3 32.1 2.5 45.2v.1c-6.3 7.1-15.1 10.6-23.9 10.6-7.7-.1-15.3-2.7-21.4-8.2z" fill="#ef404d" opacity=".71"/><path d="m538.1 1667.6c-9.9-14.7-6.1-34.6 8.5-44.6 14.7-9.9 34.6-6.2 44.6 8.5 9.9 14.7 6.2 34.6-8.5 44.6-5.5 3.8-11.8 5.5-18 5.5-10.2.1-20.3-4.8-26.6-14z" fill="#d71f28" opacity=".71"/><path d="m1962.7 1674.5c-14.7-9.9-18.6-29.8-8.7-44.5 9.9-14.7 29.8-18.6 44.6-8.7 14.7 9.9 18.5 29.8 8.7 44.5-6.2 9.2-16.3 14.2-26.6 14.2-6.3 0-12.5-1.8-18-5.5z" fill="#ef404d" opacity=".71"/><path d="m476 1560.9c-7.9-15.9-1.3-35.1 14.6-43 15.9-7.8 35.1-1.3 43 14.6 7.8 16 1.3 35.1-14.7 43-4.6 2.2-9.4 3.3-14.1 3.3-11.9-.1-23.3-6.6-28.8-17.9z" fill="#d71f28" opacity=".71"/><path d="m2026 1573.5c-15.9-7.8-22.6-26.9-14.8-42.9 7.7-15.9 26.9-22.5 42.8-14.8 16 7.8 22.6 26.9 14.8 42.9-5.5 11.4-16.9 18-28.9 18-4.6 0-9.4-1-13.9-3.2z" fill="#d71f28" opacity=".71"/><path d="m429.3 1446.3c-5.5-16.8 3.7-34.9 20.5-40.4 16.8-5.5 35 3.7 40.5 20.5 5.5 16.8-3.7 34.9-20.5 40.4-3.4 1.1-6.7 1.6-10 1.6-13.5 0-26.1-8.5-30.5-22.1z" fill="#d71f28" opacity=".71"/><path d="m2074.6 1464.6c-16.9-5.4-26.1-23.5-20.7-40.3 5.4-16.8 23.5-26.1 40.3-20.7 16.8 5.5 26.1 23.5 20.7 40.3-4.3 13.6-16.9 22.3-30.5 22.3-3.3 0-6.5-.5-9.8-1.6z" fill="#d71f28" opacity=".71"/><path d="m399.4 1326.4c-3-17.4 8.6-34.1 26-37.1 17.5-3 34.1 8.6 37.2 26 3 17.5-8.6 34.1-26.1 37.2-1.8.3-3.8.5-5.6.5-15.3-.1-28.8-11-31.5-26.6z" fill="#d71f28" opacity=".71"/><path d="m2107.4 1350.1c-17.4-3-29.1-19.6-26.1-37.1 3-17.5 19.6-29.1 37-26.1 17.5 3 29.2 19.6 26.1 37.1-2.7 15.6-16.3 26.6-31.6 26.6-1.7 0-3.5-.1-5.4-.5z" fill="#d71f28" opacity=".71"/><path d="m386.4 1203.5c-.6-17.7 13.2-32.5 30.9-33.2 17.7-.6 32.5 13.3 33.2 30.9.6 17.7-13.2 32.5-30.9 33.2-.4 0-.7 0-1.1 0-17.2.1-31.4-13.6-32.1-30.9z" fill="#d71f28" opacity=".71"/><path d="m2124 1232.1c-17.7-.6-31.6-15.5-30.9-33.1v-.1c.6-17.6 15.4-31.5 33.1-30.9 17.7.6 31.6 15.4 30.9 33.1-.6 17.3-14.8 31-32 31-.4 0-.7 0-1.1 0z" fill="#d71f28" opacity=".71"/><path d="m419.3 1115.3c-17.6-1.8-30.4-17.6-28.6-35.2 1.8-17.6 17.6-30.4 35.2-28.5 17.6 1.8 30.5 17.6 28.6 35.2-1.7 16.5-15.6 28.8-31.8 28.8-1.1-.1-2.3-.2-3.4-.3z" fill="#d71f28" opacity=".71"/><path d="m2088.8 1084.5c-1.8-17.6 10.9-33.4 28.5-35.3 17.6-1.9 33.4 10.8 35.3 28.5 1.9 17.6-10.8 33.4-28.5 35.3-1.1.2-2.3.2-3.4.2-16.2-.1-30.1-12.3-31.9-28.7z" fill="#d71f28" opacity=".71"/><path d="m435.3 997.3c-17.2-4.2-27.7-21.6-23.4-38.9 4.2-17.2 21.6-27.7 38.8-23.4001 17.2 4.3 27.7 21.6 23.5 38.8-3.7 14.6-16.8 24.4001-31.2 24.4001-2.4 0-5.1-.3-7.7-.9z" fill="#d71f28" opacity=".71"/><path d="m2068.7 971.7c-4.3-17.2 6.1-34.6 23.3-39 17.2-4.3 34.6 6.1 38.9 23.2 4.3 17.2-6.1 34.6-23.2 39-2.6.6-5.3 1-7.9 1-14.3 0-27.4-9.7-31.1-24.2z" fill="#d71f28" opacity=".71"/><path d="m467.7 882.5c-16.4-6.7-24.4-25.3-17.8-41.8 6.7-16.4 25.3-24.4 41.8-17.7 16.4 6.6 24.4 25.2 17.7 41.7-5 12.5-17 20.1-29.7 20.1-4 0-8-.8-12-2.3z" fill="#d71f28" opacity=".71"/><path d="m2033 862.9c-6.7-16.4 1.2-35.1 17.6-41.8 16.4-6.7 35.1 1.2 41.8 17.6 6.7 16.4-1.2 35.1-17.6 41.8-3.9 1.6-8 2.4-12.1 2.4-12.6-.1-24.6-7.6-29.7-20z" fill="#d71f28" opacity=".71"/><path d="m515.8 773.4c-15.3-8.8-20.6-28.5-11.8-43.8 8.9-15.4 28.5-20.7 43.9-11.8 15.3 8.8 20.6 28.5 11.7 43.8-5.9 10.3-16.7 16-27.7 16-5.5 0-11-1.3-16.1-4.2z" fill="#d71f28" opacity=".71"/><path d="m1982.5 760c-8.9-15.3-3.7-34.9 11.6-43.8 15.3-8.9 34.9-3.7 43.8 11.6 8.9 15.3 3.7 34.9-11.6 43.8-5 3-10.6 4.3-16 4.3-11.1.1-21.8-5.6-27.8-15.9z" fill="#d71f28" opacity=".71"/><path d="m578.7 672.1c-13.9-10.8-16.4-31-5.5-45 10.9-13.9 31-16.4 45-5.5 13.9 10.9 16.4 31 5.5 45-6.3 8.1-15.8 12.3-25.3 12.3-6.9 0-13.9-2.3-19.7-6.8z" fill="#d71f28" opacity=".71"/><path d="m1918.1 665.2c-10.9-13.9-8.5-34.1 5.5-45 13.9-11 34.1-8.6 45 5.4 10.9 13.9001 8.5 34.1-5.4 45-5.8 4.6-12.8 6.8-19.8 6.8-9.5 0-19-4.1-25.3-12.2z" fill="#d71f28" opacity=".71"/><path d="m655 580.5c-12.3-12.7-12-33 .7-45.3 12.7-12.3 33-12 45.4.7 12.3 12.7 12 33-.7 45.4-6.3 6-14.3 9-22.4 9-8.4 0-16.7-3.3-23-9.8z" fill="#d71f28" opacity=".71"/><path d="m1841.3 580.1c-12.7-12.3-13.1-32.6-.9-45.4 12.3-12.7001 32.6-13.1 45.4-.8 12.7 12.3 13.1 32.5.8 45.3-6.3 6.5999-14.7 9.9-23.1 9.9-8 0-16-3-22.2-9z" fill="#d71f28" opacity=".71"/><path d="m743.2 500.5c-10.5-14.3-7.3-34.3 7-44.8 14.3-10.4 34.4-7.3 44.8 7.1 10.4 14.3 7.3 34.3-7 44.8-5.8 4.2-12.3 6.2-18.9 6.2-9.8-.1-19.6-4.7-25.9-13.3z" fill="#d71f28" opacity=".71"/><path d="m1753.5 506.5c-14.3-10.4-17.6-30.5-7.1-44.8 10.4-14.3 30.5-17.5 44.8-7.1 14.3 10.3 17.5 30.4 7.1 44.7-6.2 8.7-16 13.2-26 13.2-6.6.1-13.2-1.9-18.8-6z" fill="#ef404d" opacity=".71"/><path d="m841.7 433.4c-8.3-15.6-2.5-35.1 13.2-43.4 15.6-8.3 35-2.4 43.4 13.1 8.3 15.6 2.5 35.1-13.2 43.4-4.8 2.6-10 3.8-15.0999 3.8-11.5001.1-22.6001-6.1-28.3001-16.9z" fill="#d71f28" opacity=".71"/><path d="m1656.2 445.7c-15.6-8.3-21.6-27.7-13.3-43.4 8.3-15.6 27.7-21.6 43.4-13.2 15.6 8.3 21.6 27.7 13.3 43.3-5.8 10.9-16.9 17.1-28.4 17.1-5 0-10.2-1.2-15-3.8z" fill="#ef404d" opacity=".71"/><path d="m948.4 380.7c-6.1-16.6 2.4-35 19.1-41.1 16.7-6.1 35 2.5 41.1 19.1 6.1 16.7-2.5 35.1-19.1 41.1-3.6 1.4-7.4 2-11 2-13.1 0-25.3-8.1-30.1-21.1z" fill="#d71f28" opacity=".71"/><path d="m1551.5 399.1c-16.7-6-25.3-24.5-19.2-41 6.1-16.7 24.4-25.2 41.1-19.2 16.6 6 25.3 24.4 19.2 41.1-4.7 13-17 21.1-30.1 21.1-3.7 0-7.4-.7-11-2z" fill="#d71f28" opacity=".71"/><path d="m1061.6 343.4c-3.7-17.3 7.4-34.3 24.6-38 17.4-3.7 34.4 7.3 38.1 24.7 3.7 17.3-7.4 34.3-24.7 38-2.2.5-4.5.7-6.7.7-14.8 0-28.1-10.3-31.3-25.4z" fill="#d71f28" opacity=".71"/><path d="m1441.3 367.8c-17.4-3.7-28.5-20.7-24.9-38 3.7-17.3 20.7-28.5 38-24.8 17.3 3.6 28.5 20.6 24.8 37.9-3.1 15.2-16.5 25.5-31.3 25.5-2.2 0-4.4-.2-6.6-.6z" fill="#d71f28" opacity=".71"/><path d="m1178.9 322.4c-1.3-17.7 12-33 29.7-34.2 17.6-1.2 32.9 12.1 34.2 29.7 1.2 17.6-12.1 33-29.7 34.2-.8.1-1.5.1-2.3.1-16.7 0-30.8-12.9-31.9-29.8z" fill="#d71f28" opacity=".71"/><path d="m1327.7 352.1c-17.6-1.2-31-16.5-29.8-34.1 1.2-17.7 16.5-31 34.2-29.8 17.6 1.2 31 16.5 29.7 34.1-1.1 16.9-15.2 29.9-31.9 29.9-.6 0-1.4 0-2.2-.1z" fill="#ef404d" opacity=".71"/><path d="m1273.2 1966.8c-.3 0-.6 0-.8 0-17.7 0-32.1-14.4-32.1-32.1 0-17.7 14.3-32.1 32.1-32.1h.7.6c17.7-.1 32.1 14.3 32.1 32 .1 17.7-14.3 32.1-32 32.1-.1.1-.3.1-.6.1z" fill="#d71f28" opacity=".71"/><path d="m1148.2 1957.1c-17.6-2.7-29.5-19.1-26.8-36.6 2.7-17.5 19.2-29.4 36.6-26.7 17.6 2.7 29.5 19.2 26.8 36.6-2.5 15.8-16.1 27.1-31.7 27.1-1.5 0-3.2-.1-4.9-.4z" fill="#ef404d" opacity=".71"/><path d="m1361.5 1930.2c-2.8-17.6 9.1-34 26.6-36.8v.1c17.5-2.8 33.9 9.1 36.7 26.5 2.8 17.6-9.1 34-26.6 36.8-1.7.2-3.4.4-5 .4-15.5 0-29.1-11.3-31.7-27z" fill="#d71f28" opacity=".71"/><path d="m1026.8 1928.2c-16.9-5.5-26.1-23.5-20.7-40.3 5.4-16.9 23.6-26.1 40.4-20.7 16.8 5.4 26.1 23.6 20.6 40.4-4.4 13.5-16.9 22.2-30.5 22.2-3.2 0-6.5-.5-9.8-1.6z" fill="#d71f28" opacity=".71"/><path d="m1479 1907c-5.5-16.8 3.7-34.9 20.5-40.5 16.8-5.4 35 3.7 40.5 20.5 5.5 16.8-3.7 35-20.5 40.5-3.4 1-6.7 1.6-10 1.6-13.5 0-26.1-8.6-30.5-22.1z" fill="#ef404d" opacity=".71"/><path d="m911.5 1880.5c-15.8-8-22-27.3-13.9-43.1 8-15.8 27.3-22 43.1-14 15.7999 8.1 22 27.4 13.9 43.2-5.6 11.1-16.9 17.5-28.5 17.5-4.9 0-10-1.2-14.6-3.6z" fill="#d71f28" opacity=".71"/><path d="m1591.3 1865.5c-8.1-15.7-1.8-35 13.9-43.1 15.8-8.1 35.1-1.9 43.2 13.9 8.1 15.7 1.8 35-13.9 43.1-4.7 2.4-9.7 3.6-14.7 3.6-11.6 0-22.8-6.4-28.5-17.5z" fill="#d71f28" opacity=".71"/><path d="m805.3 1815.2c-14.3-10.4-17.5-30.5-7.1-44.8 10.4-14.3 30.5-17.4 44.8-7 14.3 10.4 17.5 30.5 7 44.8-6.2 8.6-16 13.1-25.9 13.1-6.6.1-13.1-1.9-18.8-6.1z" fill="#d71f28" opacity=".71"/><path d="m1695.8 1807c-10.4-14.3-7.4-34.4 7-44.8 14.3-10.5 34.3-7.4 44.8 6.9 10.4 14.3 7.3 34.4-7 44.8-5.7 4.2-12.3 6.3-18.9 6.3-9.9 0-19.7-4.6-25.9-13.2z" fill="#d71f28" opacity=".71"/><path d="m710.6 1734.1c-12.6-12.5-12.6-32.9 0-45.4 12.5-12.5 32.8-12.5 45.4.1 12.5 12.5 12.5 32.8-.1 45.3-6.3 6.3-14.4 9.4-22.6 9.4-8.3 0-16.4-3.2-22.7-9.4z" fill="#d71f28" opacity=".71"/><path d="m1789.8 1732.8c-12.5-12.5-12.6-32.8-.1-45.3 12.5-12.6 32.8-12.7 45.4-.2 12.5 12.5 12.6 32.9.1 45.4-6.3 6.3-14.5 9.5-22.8 9.5-8.2 0-16.4-3.1-22.6-9.4z" fill="#d71f28" opacity=".71"/><path d="m629.5 1639.4c-10.4-14.3-7.4-34.3 7-44.7 14.3-10.5 34.3-7.4 44.8 6.9 10.4 14.3 7.3 34.4-7 44.8-5.7 4.2-12.3 6.2-18.9 6.2-9.9 0-19.7-4.5-25.9-13.2z" fill="#d71f28" opacity=".71"/><path d="m1871.2 1644.9c-14.3-10.3-17.6-30.4-7.2-44.7 10.4-14.3 30.5-17.6 44.8-7.1 14.3 10.3 17.6 30.4 7.1 44.7-6.3 8.7-16 13.2-26 13.2-6.4 0-13.1-2-18.7-6.1z" fill="#d71f28" opacity=".71"/><path d="m563.9 1533.4c-8.1-15.8-1.9-35.1 13.9-43.2 15.7001-8.1 35.1-1.8 43.2001 13.9h-.1c8.1 15.7 1.9 35-13.8 43.2-4.7 2.4-9.7 3.5-14.7 3.5-11.6001 0-22.8001-6.4-28.5001-17.4z" fill="#d71f28" opacity=".71"/><path d="m1937.8 1545.4c-15.8-8-22-27.3-14-43.1 8-15.8 27.3-22.1 43-14.1 15.8 8 22.1 27.3 14.1 43.1-5.7 11.1-16.9 17.6-28.6 17.6-4.9-.1-9.8-1.2-14.5-3.5z" fill="#d71f28" opacity=".71"/><path d="m515.8 1418.2c-5.5-16.8 3.7-34.9 20.5-40.4 16.8-5.5 35 3.7 40.4 20.5 5.5 16.8-3.6 34.9-20.4 40.4-3.4 1.1-6.7 1.6-10 1.6-13.5 0-26.1-8.6-30.5-22.1z" fill="#d71f28" opacity=".71"/><path d="m1988.1 1436.5c-16.8-5.4-26.1-23.5-20.7-40.3 5.4-16.8 23.5-26.1 40.3-20.7 16.9 5.5 26.1 23.5 20.8 40.3-4.4 13.6-17 22.3-30.5 22.3-3.3 0-6.6-.4-9.9-1.6z" fill="#d71f28" opacity=".71"/><path d="m486.6 1296.9c-2.7-17.5 9.2-33.9 26.7-36.6 17.5-2.8 33.9 9.1 36.6 26.6 2.8 17.5-9.1 33.9-26.6 36.7-1.7.2-3.4.4-5 .4-15.5 0-29.2-11.3-31.7-27.1z" fill="#d71f28" opacity=".71"/><path d="m2020.6 1321.3c-17.6-2.6-29.5-19.1-26.8-36.5 2.7-17.6 19.1-29.5 36.6-26.8 17.6 2.7 29.5 19.1 26.8 36.6-2.4 15.9-16.1 27.2-31.7 27.2-1.6-.1-3.3-.2-4.9-.5z" fill="#d71f28" opacity=".71"/><path d="m476.8 1172.6c0-17.7 14.4-32.1 32.1-32.1 17.7 0 32.1 14.3 32.1 32.1h.1c0 17.7-14.4 32.1-32.1 32.1-17.8-.1-32.2-14.4-32.2-32.1z" fill="#ef404d" opacity=".71"/><path d="m2002.5 1170.3c0-17.7 14.3-32.1 32.1-32.1 17.7-.1 32.1 14.3 32.1 32 .1 17.7-14.3 32.1-32 32.1-17.8.1-32.1-14.2-32.2-32z" fill="#d71f28" opacity=".71"/><path d="m513.2 1085c-17.5-2.7-29.4-19.2-26.7-36.6 2.7-17.5 19.1-29.5 36.6-26.7 17.5 2.7 29.4 19.1 26.7 36.6-2.5 15.9-16.1 27.2-31.6 27.2-1.7-.1-3.3-.3-5-.5z" fill="#ef404d" opacity=".71"/><path d="m1993.4 1056.1c-2.8-17.6 9.1-34 26.6-36.8 17.5-2.8 33.9 9.1 36.7 26.6 2.8 17.5-9.1 33.9-26.6 36.7-1.7.3-3.4.4-5.1.4-15.4 0-29.1-11.2-31.6-26.9z" fill="#d71f28" opacity=".71"/><path d="m536 967.4c-16.9-5.4-26.1-23.5-20.7-40.4 5.5-16.8 23.5-26.1 40.3-20.6 16.9 5.5 26.1 23.5 20.7 40.3-4.4 13.6-17 22.2-30.5 22.2-3.2 0-6.6-.5-9.8-1.5z" fill="#ef404d" opacity=".71"/><path d="m1966.4 944.7c-5.5-16.8 3.7-34.9 20.4-40.4 16.8-5.5 35 3.6 40.5 20.4 5.5 16.8-3.6 34.9-20.4 40.5-3.3 1-6.7 1.6-10 1.6-13.5 0-26.1-8.6-30.5-22.1z" fill="#d71f28" opacity=".71"/><path d="m577 854.8c-15.8-8-22-27.3-14-43.1 8-15.7 27.3-22 43.1-14 15.8 8 22 27.3 14 43.1-5.7 11.1-16.9 17.6-28.6 17.6-4.9-.1-9.9-1.2-14.5-3.6z" fill="#ef404d" opacity=".71"/><path d="m1922.2 839c-8.1-15.8-1.9-35.1 13.9-43.2 15.7-8.1 35-1.8 43.1 13.9 8.1 15.7 1.9 35.1-13.9 43.2-4.6 2.4-9.7 3.5-14.6 3.5-11.6 0-22.8-6.3-28.5-17.4z" fill="#ef404d" opacity=".71"/><path d="m635.2 750.1c-14.3-10.4-17.6-30.5-7.1-44.8 10.4001-14.3 30.5-17.6 44.8-7.1 14.3 10.4 17.5 30.5 7.1 44.8-6.3 8.7-16.1 13.2-26.1 13.2-6.5 0-13-2-18.7-6.1z" fill="#d71f28" opacity=".71"/><path d="m1862 741.5c-10.5-14.3-7.4-34.4 7-44.8 14.3-10.5 34.3-7.4 44.8 7 10.4 14.3 7.3 34.3-7 44.8-5.8 4.2-12.3 6.2-18.9 6.2-9.9-.1-19.7-4.6-25.9-13.2z" fill="#d71f28" opacity=".71"/><path d="m709 655.7c-12.5-12.5-12.6-32.8-.1-45.4 12.5-12.5 32.9-12.6 45.4-.1 12.5 12.5 12.6 32.9.1 45.4-6.3 6.3-14.5 9.4001-22.8 9.4001-8.2-.0001-16.3-3.0001-22.6-9.3001z" fill="#ef404d" opacity=".71"/><path d="m1787.3 654.4c-12.5-12.5-12.5-32.9 0-45.4 12.5-12.6 32.8-12.6 45.3-.1 12.6 12.5 12.6 32.8.1 45.4-6.2 6.3-14.5 9.4001-22.7 9.4001-8.2-.0001-16.5-3.1001-22.7-9.3001z" fill="#d71f28" opacity=".71"/><path d="m796.6 574c-10.4-14.3-7.3-34.4 7-44.8 14.3-10.4 34.4-7.3 44.8 7 10.4 14.3 7.3 34.4-7 44.8-5.7 4.2-12.3 6.2-18.9001 6.2-9.8999 0-19.5999-4.6-25.8999-13.2z" fill="#ef404d" opacity=".71"/><path d="m1700.1 580c-14.3-10.4-17.6-30.5-7.1-44.8 10.4-14.3 30.5-17.5 44.8-7.1 14.3 10.3 17.5 30.5 7.1 44.7-6.2 8.7001-16 13.2001-26 13.2001-6.6.0999-13.1-1.9001-18.8-6.0001z" fill="#d71f28" opacity=".71"/><path d="m895.9 507c-8.1-15.8-1.8-35.1 13.9-43.2 15.8-8.1 35.1-1.8 43.2001 13.9 8 15.7 1.7999 35-13.9001 43.1-4.5999 2.4-9.5999 3.5-14.5999 3.5-11.7001.1-23.0001-6.2-28.6001-17.3z" fill="#ef404d" opacity=".71"/><path d="m1602.3 520.1c-15.8-8-22.1-27.3-14-43.1 8-15.8 27.3-22 43.1-14 15.7 8 22 27.3 14 43.1-5.7 11.1-16.9 17.5-28.6 17.5-4.9-.1-9.9-1.2-14.5-3.5z" fill="#d71f28" opacity=".71"/><path d="m1004.3 456.4c-5.5-16.8 3.7-34.9 20.5-40.5 16.8-5.5 34.9 3.7 40.4 20.5 5.5 16.9-3.7 34.9-20.5 40.5-3.3 1-6.7 1.6-9.9 1.6-13.5 0-26.1-8.6-30.5-22.1z" fill="#d71f28" opacity=".71"/><path d="m1496.3 476.3c-16.9-5.5-26.1-23.6-20.7-40.4 5.5-16.8 23.5-26.1 40.4-20.7 16.8 5.5 26.1 23.6 20.6 40.4-4.3 13.6-17 22.2-30.5 22.2-3.2.1-6.6-.4-9.8-1.5z" fill="#d71f28" opacity=".71"/><path d="m1119.4 423.4c-2.7-17.5 9.1-33.9 26.7-36.7 17.5-2.8 33.9 9.1 36.6 26.6 2.8 17.6-9.1 34-26.6 36.7-1.7.2-3.4.4-5 .4-15.5 0-29.1-11.2-31.7-27z" fill="#d71f28" opacity=".71"/><path d="m1384.8 449.8c-17.5-2.7-29.5-19.1-26.8-36.6 2.7-17.5 19.2-29.4 36.6-26.7 17.5 2.7 29.4 19.1 26.8 36.6-2.5 15.8-16.1 27.1-31.7 27.1-1.6 0-3.2-.2-4.9-.4z" fill="#d71f28" opacity=".71"/><path d="m1238.4 409c-.1-17.7 14.3-32.1 32-32.1h.1c17.6-.1 32.1 14.3 32.1 32 0 17.7-14.3 32.1-32.1 32.1-17.8.1-32.1-14.3-32.1-32z" fill="#ef404d" opacity=".71"/><path d="m1273.1 1853.1c-.2 0-.4 0-.6 0-17.7 0-32.1-14.3-32.1-32.1 0-17.7 14.3-32.1 32.1-32.1h.6.6c17.7 0 32.1 14.3 32.1 32.1.1 17.7-14.3 32.1-32 32.1-.3 0-.6 0-.7 0z" fill="#d71f28" opacity=".71"/><path d="m1147.3 1841.7c-17.4-3.2-28.9-20-25.7-37.4 3.2-17.5 20-28.9 37.4-25.7 17.4 3.2 28.9 20 25.7 37.4-2.9 15.5-16.4 26.3-31.5 26.3-2 0-3.9-.2-5.9-.6z" fill="#d71f28" opacity=".71"/><path d="m1361.3 1815.8c-3.3-17.4 8.2-34.2 25.6-37.4 17.4-3.3 34.1 8.2 37.4 25.6 3.3 17.4-8.2 34.1-25.6 37.4-2 .4-4 .6-6 .6-15 0-28.5-10.8-31.4-26.2z" fill="#d71f28" opacity=".71"/><path d="m1026.3 1807.5c-16.5-6.4-24.7-24.9-18.3-41.4 6.3-16.5 24.9-24.8 41.4-18.4 16.5 6.3 24.7 24.9 18.4 41.4-5 12.7-17.1 20.5-30 20.5-3.8.1-7.7-.6-11.5-2.1z" fill="#d71f28" opacity=".71"/><path d="m1478.1 1788.5c-6.5-16.4 1.7-35 18.2-41.5 16.4-6.4 35 1.8 41.5 18.2 6.4 16.5-1.8 35.1-18.2 41.6-3.8 1.4-7.8 2.2-11.7 2.2-12.8 0-24.9-7.8-29.8-20.5z" fill="#d71f28" opacity=".71"/><path d="m913.7 1751.4c-15-9.4-19.6-29.1-10.3-44.2 9.3-15.1 29.1-19.6 44.1-10.3 15.1 9.4 19.7 29.2 10.3 44.2-6.1 9.8-16.5 15.2-27.2 15.2-5.7-.1-11.6-1.6-16.9-4.9z" fill="#d71f28" opacity=".71"/><path d="m1587.8 1740.1c-9.4-15-4.8-34.8 10.3-44.2 15-9.4 34.8-4.8 44.2 10.3 9.4 15 4.8 34.8-10.3 44.2-5.3 3.3-11.1 4.9-16.9 4.9-10.8-.1-21.2-5.4-27.3-15.2z" fill="#d71f28" opacity=".71"/><path d="m813.6 1675.5c-13.1-12-14-32.3-2.1-45.4 11.9-13.1 32.2-13.9 45.3-2 13.1 11.9 14 32.2 2.1 45.3-6.3 6.9-15 10.4-23.7 10.4-7.7 0-15.5-2.7-21.6-8.3z" fill="#d71f28" opacity=".71"/><path d="m1686.7 1672.3c-11.9-13-11.1-33.3 2-45.3 13.1-11.9 33.3-11.1 45.3 2 11.9 13.1 11.1 33.3-1.9 45.3-6.2 5.6-13.9 8.4-21.7 8.4-8.7 0-17.4-3.5-23.7-10.4z" fill="#d71f28" opacity=".71"/><path d="m728.9 1582.7c-10.7-14.1-7.9-34.2 6.2-45 14-10.7 34.1-8 44.9001 6.2 10.7 14 7.9 34.1-6.1 44.9-5.8 4.4-12.7 6.5-19.4 6.5-9.7001 0-19.3001-4.3-25.6001-12.6z" fill="#d71f28" opacity=".71"/><path d="m1771.6 1587.6c-14.1-10.7-17-30.7-6.3-44.9 10.7-14.1 30.8-17 44.9-6.3 14.1 10.7 17 30.7 6.3 44.9-6.3 8.3-15.9 12.8-25.7 12.8-6.7 0-13.5-2.2-19.2-6.5z" fill="#d71f28" opacity=".71"/><path d="m662.3 1476.1c-8-15.9-1.6-35.1 14.2-43 15.9-8 35.1-1.6 43 14.2 7.9 15.8 1.6 35.1-14.2 43-4.6 2.3-9.5 3.4-14.4 3.4-11.6.1-22.9-6.4-28.6-17.6z" fill="#d71f28" opacity=".71"/><path d="m1839.5 1488.7c-15.9-7.9-22.4-27.1-14.5-43 7.9-15.9 27.1-22.4 43-14.5 15.9 7.9 22.4 27.1 14.5 43-5.6 11.3-16.9 17.9-28.7 17.9-4.9 0-9.8-1.1-14.3-3.4z" fill="#d71f28" opacity=".71"/><path d="m616.5 1358.9c-4.9-17 5-34.8 22-39.6 17-4.9 34.8 5 39.6 22 4.9 17-5 34.8-22 39.7-3 .8-5.9 1.2-8.9 1.2-13.8 0-26.6-9.1-30.7-23.3z" fill="#ef404d" opacity=".71"/><path d="m1888 1379.1c-17.1-4.8-27-22.5-22.2-39.5 4.8-17.1 22.5-27 39.6-22.2 17 4.8 26.9 22.4 22.1 39.5-3.9 14.1-16.8 23.4-30.9 23.4-2.7 0-5.7-.4-8.6-1.2z" fill="#d71f28" opacity=".71"/><path d="m593.3 1235.3c-1.6-17.6 11.4-33.3 28.9-34.9 17.6-1.6 33.3 11.3 35 28.9 1.6 17.6-11.4 33.3-29 35-1 .1-2 .1-3 .1-16.3 0-30.3-12.4-31.9-29.1z" fill="#d71f28" opacity=".71"/><path d="m1915.5 1262.4c-17.6-1.6-30.6-17.2-29-34.9 1.6-17.6 17.2-30.6 34.8-29 17.6 1.6 30.6 17.2 29.1 34.8-1.5 16.7-15.6 29.2-31.9 29.2-1-.1-2-.1-3-.1z" fill="#d71f28" opacity=".71"/><path d="m622.4 1144.5c-17.6-1.6-30.6-17.2-29-34.8 1.6-17.6 17.2-30.7 34.8-29.1 17.6 1.6 30.6 17.2 29 34.9-1.5 16.7-15.5 29.2-31.9 29.2-1 0-2-.1-2.9-.2z" fill="#d71f28" opacity=".71"/><path d="m1886.2 1113.6c-1.6-17.6 11.3-33.3 28.9-34.9 17.6-1.7 33.3 11.3 35 28.9 1.6 17.6-11.3 33.3-28.9 34.9-1 .2-2 .2-3 .2-16.4 0-30.4-12.4-32-29.1z" fill="#d71f28" opacity=".71"/><path d="m638.3 1025.7c-17.1-4.9-27-22.5-22.2-39.6 4.8-17.1 22.5-26.9 39.6-22.1 17.0999 4.8 26.9 22.5 22.0999 39.5-3.9 14.2-16.8 23.4-30.9 23.4-2.6999 0-5.6999-.4-8.5999-1.2z" fill="#d71f28" opacity=".71"/><path d="m1865.1 1001.8c-5-17.1 4.9-34.8 21.9-39.7 17.1-5 34.8 4.9 39.8 21.9s0 0-.1 0c4.9 17.1-4.9 34.8-21.9 39.7-3 .9-6 1.3-8.9 1.3-13.9 0-26.8-9.1-30.8-23.2z" fill="#d71f28" opacity=".71"/><path d="m675.8 911.8c-15.9-7.9-22.3-27.2-14.4-43 7.9-15.9 27.0999-22.4 43-14.5 15.9 7.9 22.4 27.1 14.4 43-5.6 11.3-16.9 17.9-28.7 17.9-4.8 0-9.7-1.1-14.3-3.4z" fill="#d71f28" opacity=".71"/><path d="m1823.6 895.8c-7.9-15.8-1.5-35.1 14.3-43 15.8-7.9 35.1-1.5 43 14.3 7.9 15.8 1.6 35.1-14.3 43-4.6 2.3-9.5 3.4-14.3 3.4-11.8 0-23.1-6.5-28.7-17.7z" fill="#d71f28" opacity=".71"/><path d="m733.8 806.8c-14.1-10.7-17-30.8-6.3-45 10.7-14.1 30.8-16.9 44.9-6.3 14.2 10.7 17 30.8 6.3 44.9-6.3 8.3-15.9 12.7-25.7 12.7-6.6.1-13.5-1.9-19.2-6.3z" fill="#d71f28" opacity=".71"/><path d="m1763.3 799.1c-10.7-14-7.9-34.1 6.2-44.9 14.1-10.7001 34.2-7.9001 45 6.2 10.7 14.0999 7.9 34.2-6.2 44.9-5.8 4.4-12.6 6.6-19.4 6.6-9.7 0-19.2-4.4-25.6-12.8z" fill="#d71f28" opacity=".71"/><path d="m810 714.2c-11.9-13.1-11.1-33.3 2-45.3 13.1-12 33.3-11.1 45.3 2 11.9 13 11.1 33.3-2 45.3-6.2 5.6-13.9 8.4-21.6 8.4-8.7.1-17.4-3.5-23.7-10.4z" fill="#ef404d" opacity=".71"/><path d="m1686.5 715.1c-13.2-11.9-14.1-32.2-2.2-45.3 11.9-13.1 32.2-14.1 45.3-2.2 13.1 11.9 14 32.2 2.2 45.3-6.3 7-15 10.5-23.7 10.5-7.8.1-15.5-2.7-21.6-8.3z" fill="#d71f28" opacity=".71"/><path d="m901.9 637.1c-9.4-15.1-4.7-34.8 10.3-44.2 15.1-9.4001 34.8-4.8 44.2 10.3 9.4 15.0999 4.7 34.7999-10.3 44.2-5.3 3.3-11.0999 4.8-16.9 4.8-10.8 0-21.2-5.3-27.3-15.1z" fill="#d71f28" opacity=".71"/><path d="m1595.6 646.5c-15.1-9.3-19.7-29.1-10.4-44.1 9.3-15.1 29.1-19.7 44.2-10.4 15 9.3 19.6 29.1 10.3 44.2-6.1 9.8-16.5 15.2-27.3 15.2-5.8-.1-11.6-1.6-16.8-4.9z" fill="#d71f28" opacity=".71"/><path d="m1006.3 578.2c-6.4-16.5 1.8-35.1 18.3-41.5s0 0-.1 0c16.5-6.4 35.1 1.7 41.5 18.2 6.4 16.5-1.7 35.1-18.2 41.5-3.9 1.5-7.8 2.2-11.6 2.2-12.8 0-25-7.7-29.9-20.4z" fill="#d71f28" opacity=".71"/><path d="m1493.6 595.8c-16.5-6.4-24.8-24.9-18.4-41.4 6.3-16.5 24.9-24.8 41.4-18.4001 16.5 6.3 24.8 24.9001 18.4 41.4001-4.9 12.7-17.1 20.5-29.9 20.5-3.8.1-7.7-.6-11.5-2.1z" fill="#ef404d" opacity=".71"/><path d="m1119.8 539.6c-3.3-17.5 8.3-34.2 25.7-37.4 17.4-3.3 34.1 8.2 37.4 25.6 3.3 17.5-8.2 34.2-25.6 37.4-2 .4-4 .6-5.9.6-15.2-.1-28.7-10.8-31.6-26.2z" fill="#d71f28" opacity=".71"/><path d="m1384.1 564.9c-17.4-3.2-28.9-19.9-25.7-37.4 3.2-17.4 19.9-28.9 37.4-25.7 17.4 3.2 28.9 20 25.7 37.4-2.9 15.5-16.4 26.3-31.5 26.3-2 0-4-.2-5.9-.6z" fill="#ef404d" opacity=".71"/><g fill="#d71f28"><path d="m1238.5 522.6c0-17.7 14.3-32.1 32.1-32.1 17.7 0 32.1 14.3 32.1 32.1 0 17.7-14.3 32.1-32.1 32.1-17.7-.1-32.1-14.4-32.1-32.1z" opacity=".71"/><path d="m1273.2 1762.2c-.2 0-.5 0-.7 0-17.7 0-32.1-14.3-32.1-32 0-17.7 14.3-32.1 32.1-32.1v.1h.2c.3-.1.6-.1 1-.1 17.7 0 32.1 14.3 32.1 32 .1 17.7-14.3 32.1-32 32.1-.2 0-.4 0-.6 0z" opacity=".71"/><path d="m1145.6 1748.7c-17.3-3.8-28.3-20.8-24.5-38.2 3.8-17.3 20.8-28.3 38.2-24.5 17.3 3.8 28.2 20.8 24.5 38.2-3.3 15-16.6 25.2-31.3 25.2-2.3 0-4.6-.2-6.9-.7z" opacity=".71"/><path d="m1362.4 1723.9c-3.8-17.3 7.1-34.5 24.4-38.3 17.2-3.8 34.4 7.1 38.2 24.4 3.8 17.3-7.1 34.4-24.3 38.2-2.4.6-4.7.8-7.1.8-14.6 0-27.9-10.2-31.2-25.1z" opacity=".71"/><path d="m1024.5 1708c-16-7.5-23.1-26.5-15.6-42.6 7.5-16.1 26.5-23.1 42.6-15.6 16.1 7.5 23.1 26.5 15.6 42.6-5.4 11.7-17 18.6-29.1 18.6-4.5 0-9.2-1-13.5-3z" opacity=".71"/><path d="m1478.9 1691.6c-7.5-16-.6-35.1 15.5-42.6 16-7.5 35.1-.6 42.6 15.6 7.5 16 .5 35.1-15.5 42.6-4.3 2.1-9 3-13.6 3-12-.1-23.5-7-29-18.6z" opacity=".71"/><path d="m915.2 1642.1c-14-10.7-16.8-30.9-6-45 10.7-14.1 30.9-16.8 45-6 14 10.7 16.8 30.9 6 44.9-6.3 8.3-15.9 12.7-25.5 12.7-6.9-.1-13.7-2.2-19.5-6.6z" opacity=".71"/><path d="m1585.6 1634.9c-10.7-14-8.1-34.1 5.9-45h.1c14-10.7 34.1-8.1 44.9 5.9 10.7 14.1 8.1 34.2-5.9 45-5.8 4.5-12.7 6.7-19.5 6.7-9.6 0-19.2-4.3-25.5-12.6z" opacity=".71"/><path d="m822.7 1554.3c-11.5-13.5-9.9-33.7 3.6-45.2 13.5-11.5 33.7-9.9 45.2 3.6 11.5 13.4 9.9 33.7-3.6 45.1-6.1 5.2-13.5 7.7-20.8 7.7-9.1 0-18.1-3.8-24.4-11.2z" opacity=".71"/><path d="m1677.7 1556.6c-13.5-11.4-15.2-31.7-3.8-45.2 11.4-13.5 31.7-15.2 45.2-3.8 13.5 11.4 15.2 31.7 3.8 45.2-6.3 7.5-15.4 11.4-24.5 11.4-7.3 0-14.7-2.5-20.7-7.6z" opacity=".71"/><path d="m750.7 1449c-8.4-15.6-2.6-35 13.1-43.4 15.6-8.3 35-2.5 43.4 13.1 8.3 15.6 2.5 35-13.1 43.4-4.8 2.6-10 3.8-15.2 3.8-11.4 0-22.4-6.2-28.2-16.9z" opacity=".71"/><path d="m1751 1460.4c-15.6-8.3-21.6-27.7-13.4-43.3 8.2-15.7 27.6-21.7 43.3-13.5 15.6 8.3 21.6 27.7 13.4 43.3-5.7 10.9-16.8 17.2-28.4 17.2-5.1 0-10.2-1.2-14.9-3.7z" opacity=".71"/><path d="m703 1330.5c-4.8-17.1 5.1-34.8 22.2-39.5 17.1-4.8 34.7 5.1 39.5 22.2 4.8 17.1-5.2 34.8-22.2 39.5-2.9.8-5.8 1.2-8.6 1.2-14.1 0-27-9.3-30.9-23.4z" opacity=".71"/><path d="m1801.8 1350.7c-17.1-4.6-27.2-22.3-22.4-39.4 4.6-17.1 22.3-27.2 39.4-22.5 17.2 4.7 27.2 22.4 22.4 39.4-3.9 14.3-16.8 23.6-30.9 23.6-2.8 0-5.7-.3-8.5-1.1z" opacity=".71"/><path d="m682.2 1204.5c-1-17.7 12.6-32.8 30.2-33.7 17.7-1 32.8 12.6 33.7 30.3 1 17.6-12.5999 32.8-30.2 33.8-.6 0-1.2 0-1.8 0-16.8-.1-31-13.3-31.9-30.4z" opacity=".71"/><path d="m1827.8 1232.6c-17.7-.9-31.3-16-30.4-33.6.9-17.7 15.9-31.3 33.6-30.5 17.7.9 31.3 16 30.4 33.7h.1c-.9 17.2-15.1 30.5-32 30.5-.6 0-1.2 0-1.7-.1z" opacity=".71"/><path d="m715.5 1113.9c-17.5-2.9-29.3-19.3-26.5-36.8 2.8-17.5 19.2-29.4 36.8-26.6 17.5 2.9 29.3 19.3 26.5 36.8-2.6 15.8-16.2 27-31.7 27-1.7 0-3.3-.2-5.1-.4z" opacity=".71"/><path d="m1791 1085.4c-2.9-17.5 8.9-34 26.4-36.9 17.5-2.9 34 8.9 36.9 26.4 2.9 17.5-8.9 34-26.4 36.9-1.8.3-3.5.4-5.3.4-15.4-.1-29.1-11.1-31.6-26.8z" opacity=".71"/><path d="m740.8 995.6c-16.4-6.5-24.5-25.2-17.9-41.6 6.5-16.5 25.2-24.5 41.5999-18 16.4001 6.5 24.5 25.1 18 41.6h-.0999c-5 12.6-17 20.3-29.8 20.2-3.9 0-7.8-.7-11.8-2.2z" opacity=".71"/><path d="m1760.2 976c-6.6-16.4 1.3-35.2 17.7-41.8 16.4-6.7 35.1 1.3 41.8 17.8s0 0 0-.1c6.6 16.4-1.4 35.1-17.8 41.8-3.9 1.6-7.9 2.3-11.9 2.3-12.7 0-24.8-7.6-29.8-20z" opacity=".71"/><path d="m791.1 885.6c-14.6-9.9-18.5-29.8-8.6-44.5 9.9-14.7 29.9-18.5 44.6-8.6 14.6 9.9 18.5 29.8 8.6 44.5-6.2001 9.1-16.4001 14.1-26.6 14.1-6.2 0-12.5-1.7-18-5.5z" opacity=".71"/><path d="m1706.5 875.7c-10-14.7-6.2-34.6 8.4-44.6 14.6-10 34.5-6.3 44.6 8.3 9.9 14.6 6.3 34.5-8.4 44.6-5.5 3.8-11.8 5.6-18 5.6-10.3 0-20.4-4.9-26.6-13.9z" opacity=".71"/><path d="m863.9 789.1c-12.2-12.8-11.7-33.2 1.1-45.4 12.8-12.2001 33.1-11.7001 45.4 1.0999 12.2 12.9001 11.7 33.2-1.2 45.4001-6.2 5.9-14.1 8.7999-22 8.7999-8.6.0001-17-3.2999-23.3-9.8999z" opacity=".71"/><path d="m1632.6 789c-12.8-12.1-13.5-32.4-1.3-45.3 12.2-12.9 32.5-13.5 45.4-1.3 12.8 12.2 13.4 32.5 1.3 45.3-6.3 6.7-14.8 10.1-23.3 10.1-8 0-15.9-2.9-22.1-8.8z" opacity=".71"/></g><path d="m955.6 710.3c-9.1-15.2-4.3-34.9 10.8-44 15.0999-9.2 34.9-4.3 44 10.8 9.2 15.2 4.3 34.9-10.8 44-5.2 3.1-10.9 4.6-16.6 4.6-10.8.1-21.4-5.5-27.4-15.4z" fill="#ef404d" opacity=".71"/><path d="m1541.9 720.2c-15.1-9.1-20-28.8-11-43.9 9.1-15.2 28.9-20.1 44-11 15.1 9.1 20.1 28.8 11 44-6 9.9-16.6 15.6-27.5 15.6-5.6 0-11.3-1.5-16.5-4.7z" fill="#d71f28" opacity=".71"/><path d="m1062 653.1c-5.7-16.8 3.3-34.9 20-40.6 16.8-5.7 35 3.3 40.6 20 5.7 16.8-3.3 35-20 40.7-3.5 1.1-6.9 1.7-10.3 1.7-13.3 0-25.8-8.4-30.3-21.8z" fill="#d71f28" opacity=".71"/><path d="m1438.7 672.6c-16.8-5.6-25.9-23.8-20.3-40.6 5.6-16.8 23.8-25.9 40.6-20.3 16.8 5.7 25.9 23.8 20.3 40.6-4.5 13.4-17 21.9-30.4 21.9-3.5.1-6.9-.4-10.2-1.6z" fill="#d71f28" opacity=".71"/><path d="m1178.3 620.2c-1.9-17.6 10.8-33.4 28.4-35.3 17.6-1.9 33.4 10.8 35.4 28.5 1.9 17.6-10.8 33.4-28.4 35.4-1.2.1-2.3.2001-3.5.2001-16.2-.2001-30.1-12.4001-31.9-28.8001z" fill="#d71f28" opacity=".71"/><path d="m1327.5 648.5c-17.6-1.8-30.4-17.6-28.5-35.3 1.8-17.6 17.6-30.4 35.2-28.5 17.6 1.9 30.4 17.7 28.5 35.3-1.8 16.5-15.6 28.7-31.8 28.7-1.2 0-2.3 0-3.4-.2z" fill="#d71f28" opacity=".71"/><path d="m1273.3 1671.3c-.3.1-.6.1-.9.1-17.7 0-32.1-14.4-32.1-32.1 0-17.7 14.3-32.1 32.1-32.1h.5 1c17.7-.1 32.1 14.2 32.2 31.9 0 17.7-14.3 32.1-32 32.2h-.1c-.2.1-.4.1-.7 0z" fill="#d71f28" opacity=".71"/><path d="m1143.2 1654.6c-17.1-4.6-27.2-22.1-22.7-39.2 4.5-17.2 22-27.3 39.2-22.8 17.1 4.6 27.2 22.1 22.8 39.3-3.9 14.3-16.8 23.8-30.9 23.8-2.8 0-5.6-.4-8.4-1.1z" fill="#d71f28" opacity=".71"/><path d="m1364 1631.4c-4.6-17.1 5.4-34.7 22.5-39.4 17.2-4.6 34.7 5.5 39.4 22.5 4.6 17.1-5.4 34.7-22.5 39.4-2.8.8-5.6 1.2-8.4 1.2-14.2 0-27.1-9.4-31-23.7z" fill="#d71f28" opacity=".71"/><path d="m1022.7 1604.7c-15.4-8.9-20.6-28.5-11.7-43.8 8.9-15.3 28.5-20.5 43.9-11.6 15.3 8.8 20.5 28.5 11.6 43.8-5.9 10.3-16.7 16-27.7 16-5.5-.1-11-1.5-16.1-4.4z" fill="#d71f28" opacity=".71"/><path d="m1479.7 1592c-9-15.3-3.8-34.9 11.5-43.8 15.2-8.9 34.9-3.8 43.9 11.5 8.9 15.3 3.8 35-11.5 43.9-5 3-10.7 4.3-16.1 4.3-11.1-.1-21.9-5.8-27.8-15.9z" fill="#d71f28" opacity=".71"/><path d="m919.5 1525.2c-12.6-12.5-12.6-32.8 0-45.3 12.5-12.6 32.8-12.5 45.3 0 12.6 12.5 12.5 32.8 0 45.4-6.3 6.3-14.4 9.4-22.6 9.4-8.3 0-16.4-3.2-22.7-9.5z" fill="#d71f28" opacity=".71"/><path d="m1581.2 1523.8c-12.6-12.5-12.7-32.8-.2-45.4 12.4-12.6 32.7-12.7 45.3-.2 12.6 12.4 12.7 32.8.2 45.3-6.3 6.3-14.5 9.5-22.8 9.5-8.1.1-16.2-3-22.5-9.2z" fill="#d71f28" opacity=".71"/><path d="m839.9 1422.2c-9-15.3-3.8-35 11.5-43.8 15.3-9 35-3.8 43.9 11.5 8.9001 15.3 3.8 34.9-11.5 43.8-5.0999 3-10.7 4.4-16.2 4.4-11 0-21.8-5.7-27.7-15.9z" fill="#d71f28" opacity=".71"/><path d="m1661.7 1431.8c-15.3-8.8-20.7-28.4-11.9-43.8 8.8-15.3 28.4-20.7 43.8-11.9 15.3 8.8 20.7 28.4 11.9 43.8-5.9 10.3-16.7 16.1-27.8 16.1-5.5.1-11-1.3-16-4.2z" fill="#ef404d" opacity=".71"/><path d="m789.4 1301.9c-4.6-17.1 5.4-34.7 22.6-39.3 17.1-4.6 34.7 5.5 39.3 22.5 4.6 17.1-5.4 34.7-22.5 39.4-2.8.7-5.6 1.1-8.4 1.1-14.2 0-27.1-9.4-31-23.7z" fill="#ef404d" opacity=".71"/><path d="m1715.7 1322.2c-17.2-4.6-27.4-22-22.8-39.2 4.5-17.2 22-27.3 39.1-22.8 17.2 4.5 27.4 22 22.9 39.1-3.9 14.4-16.8 24-31 24-2.7-.1-5.5-.5-8.2-1.1z" fill="#ef404d" opacity=".71"/><path d="m772.2 1172.7c-.1-17.7 14.3-32.1 32-32.1 17.7 0 32.1 14.3 32.1 32.1 0 17.7-14.3 32.1-32.1 32.1-17.6-.1-32-14.4-32-32.1z" fill="#d71f28" opacity=".71"/><path d="m1707.1 1170.2c0-17.6 14.3-32.1 32-32.1 17.7-.1 32.1 14.3 32.1 32 .1 17.7-14.2 32.1-31.9 32.1-.1 0-.1 0-.2 0-17.5 0-31.9-14.3-32-32z" fill="#d71f28" opacity=".71"/><path d="m811.7 1082.6c-17.1-4.5-27.3-22-22.8-39.2 4.6-17.1 22-27.3 39.2-22.8 17.2 4.5 27.3 22 22.8 39.2-3.8 14.3-16.8 23.9-30.9 23.8-2.8.1-5.5-.2-8.3-1z" fill="#d71f28" opacity=".71"/><path d="m1692 1057.7c-4.6-17.1 5.5-34.7 22.5-39.4 17.1-4.6 34.7 5.4 39.4 22.4 4.6 17.1-5.5 34.7-22.5 39.4-2.8.8-5.7 1.2-8.5 1.2-14.1.1-27.1-9.3-30.9-23.6z" fill="#d71f28" opacity=".71"/><path d="m850.3 966.7c-15.3-8.8-20.6-28.5-11.8-43.8 8.8-15.4 28.5-20.7 43.8-11.8 15.4 8.8 20.7 28.4001 11.9 43.8-5.9 10.3-16.8 16-27.8 16-5.5 0-11-1.4-16.1-4.2z" fill="#d71f28" opacity=".71"/><path d="m1648.1 953c-9-15.3-3.9-34.9 11.5-43.8 15.3-9 35-3.8 43.8 11.5 9 15.3 3.8 35-11.5 43.8-5 3-10.6 4.4-16.1 4.4-11.1 0-21.8-5.7-27.7-15.9z" fill="#d71f28" opacity=".71"/><path d="m917.8 864.7c-12.6-12.5-12.6-32.8-.2-45.4 12.5-12.6 32.9-12.6 45.4-.1 12.6 12.5 12.6 32.8.2 45.3-6.3 6.3-14.5 9.5-22.8 9.5-8.2 0-16.3-3.1-22.6-9.3z" fill="#ef404d" opacity=".71"/><path d="m1578.5 863.1c-12.6-12.5-12.7-32.8-.2-45.4 12.5-12.5 32.8-12.6 45.4-.1 12.5 12.5 12.6 32.8.1 45.3-6.3 6.3-14.4 9.5-22.7 9.5-8.2 0-16.4-3.1-22.6-9.3z" fill="#d71f28" opacity=".71"/><path d="m1009.2 783.5c-8.9-15.3-3.7-34.9 11.6-43.8 15.3-8.9 34.9-3.7 43.8 11.6 8.9 15.3 3.7 34.9-11.6 43.8-5 3-10.6 4.3-16.1 4.3-11 0-21.7-5.6-27.7-15.9z" fill="#ef404d" opacity=".71"/><path d="m1488.1 794.1c-15.3-8.8-20.6-28.4-11.8-43.8 8.8-15.3 28.5-20.6 43.8-11.8 15.4 8.8 20.7 28.4 11.9 43.8-6 10.3-16.8 16-27.9 16-5.4 0-10.9-1.3-16-4.2z" fill="#d71f28" opacity=".71"/><path d="m1118.5 728.7c-4.6-17.1 5.5-34.7 22.6-39.3 17.1-4.6 34.7 5.5 39.3 22.6 4.6 17.1-5.5 34.7-22.6 39.3h.1c-2.8.8-5.6 1.1-8.4 1.1-14.2.1-27.1-9.3-31-23.7z" fill="#d71f28" opacity=".71"/><path d="m1383.1 750.9c-17.1-4.5-27.3-22-22.8-39.2 4.5-17.1 22-27.3 39.2-22.8 17.1 4.5 27.3 22 22.8 39.2-3.8 14.3-16.8 23.8-30.9 23.8-2.7 0-5.5-.3-8.3-1z" fill="#d71f28" opacity=".71"/><path d="m1238.3 704.4c0-17.7 14.3-32.1 32.1-32.1 17.7-.0999 32.1 14.3 32.1 32 .1 17.7001-14.3 32.1-32 32.1-17.8 0-32.1-14.3-32.2-32z" fill="#ef404d" opacity=".71"/><path d="m1273.2 1580.5c-.2 0-.5 0-.7 0-17.7 0-32.1-14.3-32.1-32.1 0-17.7 14.3-32.1 32.1-32.1h.3 1c17.7-.1 32.1 14.2 32.2 31.9 0 17.7-14.3 32.1-32 32.2-.1 0-.1 0-.2 0-.2.1-.4.1-.6.1z" fill="#d71f28" opacity=".71"/><path d="m1146.3 1560.7c-16.9-5.4-26.1-23.5-20.7-40.3 5.5-16.9 23.5-26.1 40.4-20.7 16.8 5.5 26.1 23.5 20.6 40.4-4.3 13.5-16.9 22.2-30.5 22.2-3.3 0-6.6-.6-9.8-1.6z" fill="#d71f28" opacity=".71"/><path d="m1359.6 1539.6c-5.5-16.8 3.6-34.9 20.4-40.5 16.8-5.5 35 3.6 40.5 20.4 5.5 16.8-3.6 35-20.4 40.6-3.4 1-6.7 1.6-10.1 1.6-13.4 0-25.9-8.6-30.4-22.1z" fill="#d71f28" opacity=".71"/><path d="m1032.4 1502.6c-14.3-10.4-17.5-30.5-7.1-44.8 10.4-14.3 30.5-17.5 44.8-7 14.3 10.4 17.5 30.5 7 44.8-6.3 8.6-16 13.1-25.9 13.1-6.6.1-13.2-1.9-18.8-6.1z" fill="#d71f28" opacity=".71"/><path d="m1468.8 1494.6c-10.5-14.3-7.5-34.4 6.8-44.9 14.3-10.5 34.4-7.4 44.9 6.9 10.5 14.2 7.4 34.3-6.9 44.8-5.7 4.2-12.3 6.3-18.9 6.3-9.8-.1-19.5-4.6-25.9-13.1z" fill="#d71f28" opacity=".71"/><path d="m942 1412.4c-10.5-14.3-7.4-34.4 6.9-44.8 14.3-10.5 34.3-7.5 44.8 6.8 10.5 14.3 7.4 34.4-6.9 44.9-5.7 4.2-12.3 6.2-18.9 6.2-9.8 0-19.5-4.5-25.9-13.1z" fill="#d71f28" opacity=".71"/><path d="m1558.8 1417.9c-14.3-10.3-17.6-30.4-7.3-44.7 10.3-14.3 30.4-17.6 44.8-7.3 14.3 10.3 17.6 30.4 7.2 44.7-6.2 8.7-16 13.4-26.1 13.4-6.4 0-13-2-18.6-6.1z" fill="#d71f28" opacity=".71"/><path d="m883.4 1298.8c-5.6-16.8 3.5-34.9 20.4-40.5 16.8-5.5 35 3.6 40.5 20.4v.1c5.6 16.8-3.5 34.9-20.4 40.5-3.4 1-6.7 1.6-10 1.6-13.5 0-26.1-8.6-30.5-22.1z" fill="#ef404d" opacity=".71"/><path d="m1620.7 1317.3c-16.8-5.4-26.1-23.5-20.8-40.3 5.4-16.9 23.4-26.2 40.3-20.8 16.8 5.4 26.1 23.4 20.8 40.2-4.3 13.6-16.9 22.4-30.5 22.4-3.2 0-6.5-.5-9.8-1.5z" fill="#d71f28" opacity=".71"/><path d="m863.1 1172.6c0-17.7 14.3-32.1 32.1-32.1 17.7 0 32.0999 14.3 32.0999 32.1.1 17.6-14.3 32.1-32 32.1-17.7999-.1-32.0999-14.4-32.1999-32.1z" fill="#d71f28" opacity=".71"/><path d="m1616.3 1170.4c-.1-17.7 14.2-32.1 31.9-32.1 17.7-.1 32.1 14.2 32.2 31.9 0 17.7-14.3 32.1-32 32.2-.1 0-.1 0-.2 0-17.5 0-31.9-14.3-31.9-32z" fill="#d71f28" opacity=".71"/><path d="m903.5 1086.7c-16.8-5.4-26.1-23.4-20.7-40.3 5.5-16.8 23.5-26.1 40.3-20.7 16.8 5.5 26.1 23.5 20.7 40.3-4.3 13.6-16.9 22.3-30.5 22.3-3.3 0-6.5-.5-9.8-1.6z" fill="#d71f28" opacity=".71"/><path d="m1599 1064.1c-5.5-16.8 3.6-35 20.4-40.5 16.8-5.5 35 3.6 40.5 20.4 5.5 16.8-3.5 34.9-20.4 40.6-3.4 1-6.7 1.6-10.1 1.6-13.4 0-25.9-8.6-30.4-22.1z" fill="#d71f28" opacity=".71"/><path d="m947.7 977.1c-14.3-10.3-17.6-30.4-7.2-44.7 10.4-14.3 30.5-17.6 44.8-7.2 14.3 10.4 17.6 30.5 7.2 44.7999-6.3 8.7001-16.1 13.2001-26.1 13.2001-6.4 0-13-2-18.7-6.1z" fill="#ef404d" opacity=".71"/><path d="m1549.6 968.4c-10.4-14.3-7.4-34.3 6.9-44.8 14.3-10.4 34.3-7.4 44.8 6.9001 10.5 14.2999 7.4 34.4-6.9 44.7999-5.7 4.2001-12.3 6.3-18.9 6.3-9.8 0-19.6-4.6-25.9-13.2z" fill="#d71f28" opacity=".71"/><path d="m1023.7 886.6c-10.5-14.3-7.4-34.4 6.9-44.8 14.3-10.5 34.3-7.4 44.8 6.9 10.4 14.3 7.4 34.4-6.9 44.8-5.8 4.2-12.3 6.3-18.9 6.3-9.9-.1-19.6-4.6-25.9-13.2z" fill="#ef404d" opacity=".71"/><path d="m1473.1 892.4c-14.3-10.3-17.6-30.4-7.2-44.7 10.4-14.3 30.5-17.6 44.8-7.2 14.3 10.4 17.6 30.5 7.2 44.8-6.3 8.7-16.1 13.2-26.1 13.2-6.4 0-13-1.9-18.7-6.1z" fill="#d71f28" opacity=".71"/><path d="m1123.8 823.8c-5.5-16.8 3.6-35 20.4-40.5 16.8-5.5 35 3.7 40.5 20.5 5.5 16.8-3.7 34.9-20.4 40.4-3.4 1.1-6.7 1.6-10 1.6-13.5.1-26.1-8.5-30.5-22z" fill="#d71f28" opacity=".71"/><path d="m1377.1 843.8c-16.9-5.5-26.1-23.5-20.8-40.3 5.5-16.8 23.5-26.1 40.3-20.8 16.9 5.5 26.1 23.5 20.8 40.4-4.4 13.5-17 22.2-30.5 22.2-3.2 0-6.6-.5-9.8-1.5z" fill="#d71f28" opacity=".71"/><path d="m1238.4 795.3c0-17.7 14.3-32.1 32.1-32.1 17.7 0 32.1 14.3 32.1 32.1.1 17.7-14.3 32.1-32 32.1-17.7-.1-32.1-14.4-32.2-32.1z" fill="#d71f28" opacity=".71"/><path d="m1273 1489.6c-.2 0-.3 0-.6 0-17.7 0-32.1-14.3-32.1-32.1 0-17.7 14.3-32.1 32.1-32.1h.6.4c17.7-.1 32.1 14.3 32.1 31.9.1 17.7-14.2 32.1-32 32.2h.1c-.1 0-.1 0-.2 0-.1.1-.2.1-.4.1z" fill="#d71f28" opacity=".71"/><path d="m1143.2 1462.3c-16.2-7.1-23.4-26.1-16.2-42.3 7.2-16.2 26.1-23.4 42.3-16.2 16.2 7.2 23.4 26.1 16.2 42.3-5.3 11.9-17 19-29.3 19-4.3 0-8.7-.9-13-2.8z" fill="#d71f28" opacity=".71"/><path d="m1360.3 1445.6c-7.3-16.1-.2-35.1 16-42.4 16.1-7.4 35.1-.2 42.4 16 7.3 16.1.1 35.1-16 42.4-4.3 2-8.7 2.9-13.2 2.9-12.2-.1-23.8-7-29.2-18.9z" fill="#d71f28" opacity=".71"/><path d="m1036.5 1384.6c-11.9-13.1-10.9-33.4 2.2-45.3 13.2-11.9 33.4-10.8 45.3 2.3 11.9 13.1 10.8 33.3-2.2 45.3-6.2 5.5-13.9 8.3-21.5 8.3-8.8 0-17.4-3.6-23.8-10.6z" fill="#d71f28" opacity=".71"/><path d="m1463.8 1386c-13.2-11.8-14.4-32.1-2.6-45.3 11.7-13.2 32-14.3 45.2-2.6 13.2 11.8 14.4 32 2.6 45.2-6.3 7.1-15.2 10.7-24 10.7-7.5.1-15.1-2.6-21.2-8z" fill="#d71f28" opacity=".71"/><path d="m969.9 1270.7c-5.6-16.8 3.5-35 20.3-40.5 16.8-5.6 35 3.5 40.6 20.4 5.5 16.8-3.5 34.9-20.4 40.5-3.4 1.1-6.7 1.6-10.1 1.6-13.5 0-26-8.5-30.4-22z" fill="#d71f28" opacity=".71"/><path d="m1534.2 1289.5c-16.9-5.4-26.2-23.4-20.8-40.3 5.4-16.8 23.4-26.1 40.3-20.8 16.8 5.4 26.1 23.4 20.8 40.2-4.3 13.6-16.9 22.4-30.5 22.4-3.3 0-6.6-.5-9.8-1.5z" fill="#d71f28" opacity=".71"/><path d="m984.3 1174.5c-17.6-1.8-30.4-17.6-28.6-35.2 1.8-17.6 17.6-30.5 35.2-28.6 17.6 1.8 30.5 17.6 28.6 35.1-1.7 16.5-15.6 28.9-31.8 28.9-1.2 0-2.3-.1-3.4-.2z" fill="#d71f28" opacity=".71"/><path d="m1523.9 1144.2c-1.9-17.6 10.8-33.4 28.4-35.4 17.6-1.9 33.5 10.8 35.4 28.5 1.8 17.6-10.8 33.4-28.5 35.4-1.2.1-2.3.2-3.5.2-16.1-.1-30-12.3-31.8-28.7z" fill="#d71f28" opacity=".71"/><path d="m1008 1057.4c-15.4-8.8-20.7-28.5-11.9-43.8 8.8-15.4 28.4-20.7 43.8-11.9 15.3 8.8 20.6 28.4 11.9 43.8-5.9 10.3-16.8 16.1-27.9 16.1-5.4 0-10.9-1.3-15.9-4.2z" fill="#d71f28" opacity=".71"/><path d="m1490.9 1044.3c-9-15.3-3.8-35 11.5-43.8 15.3-8.9999 35-3.7999 43.9 11.5 9 15.2 3.8 34.9-11.5 43.8-5.1 3-10.7 4.4-16.2 4.4-11.1-.1-21.8-5.8-27.7-15.9z" fill="#d71f28" opacity=".71"/><path d="m1077.3 960c-10.5-14.3-7.4-34.3 6.9-44.8 14.3-10.4 34.3-7.4 44.8 6.9 10.4 14.3 7.4 34.4001-6.9 44.8-5.8 4.3-12.3 6.3-18.9 6.3-10 0-19.7-4.6-25.9-13.2z" fill="#d71f28" opacity=".71"/><path d="m1419.9 966.1c-14.3-10.3-17.6-30.4-7.2-44.7 10.4-14.3 30.5-17.6 44.8-7.2 14.3 10.2999 17.6 30.4 7.1 44.7-6.3 8.7-16 13.3-26 13.3-6.4 0-13-2-18.7-6.1z" fill="#d71f28" opacity=".71"/><path d="m1180 899.2c-3.7-17.3 7.3-34.4 24.7-38.1s0 0-.1 0c17.3-3.8 34.4 7.3 38.1 24.6 3.7 17.3-7.3 34.4-24.6 38.1-2.3.5-4.6.7-6.7.7-14.9 0-28.2-10.3-31.4-25.3z" fill="#d71f28" opacity=".71"/><path d="m1323.6 923.5c-17.3-3.6-28.5-20.6-24.8-37.9 3.6-17.3 20.6-28.5 37.9-24.8 17.3 3.6 28.5 20.6 24.9 37.9-3.1 15.2-16.5 25.6-31.3 25.6-2.3 0-4.5-.3-6.7-.8z" fill="#d71f28" opacity=".71"/><path d="m659 1347.4s-100.7-218.2 211.5-315.6c0 0 396.2-114.2 470.1 278.7 73.9 392.8 23.5 480.1-80.6 537.2s-466.7 134.3-557.4-73.9 80.6-362.6 225-389.5 181.3-36.9 194.7-36.9-19.6-231.5-268.6-120.9c-151.1 67.2-194.7 120.9-194.7 120.9z" fill="#010101" opacity=".4"/><path d="m614 1302.5s-100.7-218.2 211.5-315.6c0 0 396.2-114.2 470.1 278.7s23.5 480.1-80.6 537.2-466.7 134.3-557.4-73.9 80.6-362.6 225-389.5 181.3-36.9 194.7-36.9-19.6-231.5-268.6-120.9c-151 67.1-194.7 120.9-194.7 120.9z" fill="#f9b11a"/><path d="m1790.5 806.8-14.9-59.5c-17.6-70.6 26.1-141.9 97-158l414.8-94.7s315.6-30.2 164.5 258.5c-151.1 288.8-268.6 510.4-268.6 510.4l429.8-87.3 21.3 86.6c14.1 57.3-22.1 114.9-79.8 127.2l-495.5 105.2s-261.9 10.1-114.2-255.2 292.1-537.2001 292.1-537.2001z" fill="#010101" opacity=".4"/><path d="m1745.6 761.9-14.9-59.5c-17.6-70.6 26.1-141.9 97-158l414.8-94.7s315.6-30.2 164.5 258.5c-151.1 288.8-268.6 510.4-268.6 510.4l429.8-87.3 21.3 86.6c14.1 57.3-22.1 114.9-79.8 127.2l-495.5 105.2s-261.9 10.1-114.2-255.2c147.7-265.3001 292.1-537.2002 292.1-537.2002z" fill="#f9b11a"/><path d="m1219.7 1038.5-14.9-59.5c-17.6-70.6 26.1-141.9 97-158l414.8-94.7s315.6-30.2 164.5 258.5-268.6 510.4-268.6 510.4l429.8-87.3 21.3 86.6c14.1 57.3-22.1 114.9-79.8 127.2l-495.5 105.2s-261.9 10.1-114.2-255.2 292.1-537.2002 292.1-537.2002z" fill="#010101" opacity=".4"/><path d="m614 1302.5s-100.7-218.2 211.5-315.6c0 0 396.2-114.2 470.1 278.7s23.5 480.1-80.6 537.2-466.7 134.3-557.4-73.9 80.6-362.6 225-389.5 181.3-36.9 194.7-36.9-19.6-231.5-268.6-120.9c-151 67.1-194.7 120.9-194.7 120.9z" fill="url(#c)"/><path d="m58 904.2 121-51.5c94.2-40.1 203.1 4.3 242.4 98.9 0 0 294.6 711.4 318.1 765.2 23.5 53.7 107.4 355.9-255.2 513.7s-416.3-144.4-416.3-144.4l-13.4-57.1s228.3 0 302.2-77.2 87.3-100.7-6.7-308.9-292.1-738.7-292.1-738.7z" fill="#010101" opacity=".4"/><path d="m1745.6 761.9-14.9-59.5c-17.6-70.6 26.1-141.9 97-158l414.8-94.7s315.6-30.2 164.5 258.5c-151.1 288.8-268.6 510.4-268.6 510.4l429.8-87.3 21.3 86.6c14.1 57.3-22.1 114.9-79.8 127.2l-495.5 105.2s-261.9 10.1-114.2-255.2c147.7-265.3001 292.1-537.2002 292.1-537.2002z" fill="url(#d)"/><path d="m1005.1 1454.7c-59.1-29.4-114.3-11.6-134.4 0-18.8 10.8-21.3 26.6-21.4001 27.9.5-.1 1-.2 1.5-.2.2-.9 6.4001-27.2 41.3-28.8 46-2 89.7 28.8 112.7001 44 42.1 30.9 59.9 56.1 64.6 61.7 4.8 5.6 9.8 13.7 10.5 14.5.7.7 3.3 1.1 3.3-3.5-1.5-33.8-25.3-89.4-78.1-115.6z" fill="#ed1c24" opacity=".71"/><path d="m997.6 1703.3c-.3-.4-1.6-2.9-3.7-5.9-2-3-4.9001-6.6-7.1-9.2-6.8-8-17.3-18.9-33.8-33.7-17.1-15.4-34.7-29.8-53.2-41.4-1.4-.8-5.6-3.4-11.8-6.7.6 1 14.8 26.5 37.3 51.7 1 1.2 2.1 2.4 3.2 3.6 0 0 .1.1.1.1 23.3 25.2 59.7 56.2 70.4 51.6 2.1-1.1 1.7-4.6-1.4-10.1z" fill="url(#e)" opacity=".71"/><path d="m1067.6 1550.7c8.1 10.5 15.5 18.9 15.1 22.2-.8 1.7-2.3 1.3-2.9.8-.7-.7-5.7-8.9-10.5-14.5-4.2-5-18.9-25.6-52-52 4.7 1.8 10.6 5 17.9 10.7 5.6 4.4 12 10.2 19.1 18 4.5 4.8 9.2 9.5 13.3 14.8z" fill="url(#f)" opacity=".71"/><path d="m940.3 1725.2c-1.6-.8-2.6-1.3-2.8-1.4-9.2-4.7-26-13.8-41.8-21.6-9.2-4.6-36.5-15.9-50.9-21.4-5.1-1.9-13.5-6.8-19.5-13-6.7-6.9-10.7-15-11.5-16.5-6.4-12.1-10.6-30.3-8.8-39.2 2-9.7 8.3-16.2 15.5-19.7 4.4-2.2 9.1-3.3 13.3-3.5 9.4-.3 21.6 3.6 28.1 6.1 10.2 3.7 19.2 8 25.9 11.5l-.8-1.5c-6.7-3.6-13.7-7-20.6-9.8-11.1-4.5-21.9-7.5-29.8-8.2-6.7-.5-15.0999 1-22 5.6-2.2 1.4-4 3-5.9 4.8-3.2 3.7-5.7 8.3-6.8 14-1.9 9.6 2.2 28.5 9.1 41.4l.2.4c3.5 6.7 7.5 12.3 11.8 16.8 6.3 6.4 15.1 11.7 20.7 13.8 14.7 5.6 41.8 16.9 50.6 21.3 9.9 4.9 20.4 10.5 28.9 14.9 3.1 1.6 6 3.1 8.6 4.5.4.2 5.6 2.7 6.4 3.1.6.2 1.1.5 1.7.7.9.3 1.8.5 2.3.5.2 0 .6 0 .7-.4.2-1.2-1.1-2.5-2.6-3.2z" fill="url(#g)" opacity=".71"/><path d="m820.5 1592.3c-7.2 3.6-13.5 10-15.5 19.7-1.8 9 2.3 27.2 8.8 39.2.8 1.5 4.8 9.6 11.5 16.5 6 6.1 14.4 11 19.5 13 14.4 5.5 41.7 16.8 50.9 21.4 15.8 7.8 32.6 16.9 41.8 21.6l2.8 1.4h.1c-71.1-38.2-107.6-130-109.9001-136.1-3.2999.6-6.6999 1.6-9.9999 3.3z" fill="url(#h)" opacity=".71"/><path d="m998.6 1702.5s-.1-.2-.3-.5c-4.7-7.7-15.7-21.5-42.2-45.8-17-15.5-34.5-30.1-52.9-41.8-2.8-1.8-7-4.4-8.1-5-2.7-1.5-5.4-3.1-8.1-4.6l.8 1.4c6.2 3.2 10.5 5.8 11.8 6.7 18.5 11.5 36.1 26 53.2 41.4 16.5 14.8 27.1 25.7 33.8 33.7 2.3 2.7 5.1 6.3 7.1 9.2 2.0999 3 3.4 5.4 3.7 5.9 3.1 5.5 3.5 9 1.3 10.2-10.7001 4.6-47.1-26.4-70.4001-51.6s-.0999-.1-.0999-.1c-1.1-1.2-2.2001-2.4-3.2001-3.6l.9001 1.1c17.7 19.8 45 44.6 62.3 53.5 0 0 .7.4.7.4 5.4 2.7 9.8 3.8 12.5 2.6 2.8-1.1 1.8-5.8-2.8-13.1z" fill="url(#i)" opacity=".71"/><path d="m1068.1 1623c-1.9-3.6-4.1-7.3-6.6-11-18.8-26.1-48.4-50.9-48.4-50.9-37.7-33-79-60.2-112.2-71.7-17.9001-6.2-32-7.5-41-7.5-2.6 0-5.3.2-8 .5-4.1.5-8.3 1.3-11.8 2.3-1.9.6-3.8 1.3-5.7 2.1-8 3.4-14.1 11.2-14.1 11.2s-20.9 25.4-26.9 60.9c-6 35.2.8 79.3 27.8 114.3 0 0 25.0999 34.9 69.2999 49.5 24 7.9 39.8 8.3 47.4001 7.3h.0999.1.2c.2 0 .6-.1.9001-.1s.2 0 .2-.1c2-.4 2.5999-.6 3.2-1.1.1-.1.2-.2.2-.2-.2.2-.4.2-.6.2-.5 0-1.4-.2-2.3-.5-.6-.2-1.1-.4-1.7-.7-.9-.4-6-2.9-6.4-3.1-2.6-1.3-5.5-2.9-8.6-4.5-8.4-4.4-18.9-10-28.9-14.9-8.8-4.4-36-15.7-50.6-21.3-5.6-2.1-14.4-7.3-20.7-13.8-4.4-4.5-8.4-10.1-11.8-16.8l-.2-.4c-6.9-12.9-11-31.8-9.1-41.4 1.1-5.7 3.6-10.3 6.8-14 1.9-1.8 3.6-3.4 5.9-4.8 6.9001-4.5 15.3-6.1 22-5.6 7.9001.6 18.7 3.6 29.8 8.2 6.9 2.8 13.9 6.2 20.6 9.8 2.7 1.5 5.5 3 8.1 4.6 1.1.6 5.3 3.2 8.1 5 18.4 11.7 35.9 26.3 52.9 41.8 26.5 24.2 37.5 38.1 42.2 45.8.2.3.3.4.3.5 4.6 7.2 5.6 11.9 2.9 13.2-.2.1-.4.2-.6.2 5.1-1.2 30.2-14.9 48-36.3s23.5-37.6 23.9-39.7c.3-2.1 2.2-4.4-4.7-17z" fill="url(#j)"/><path d="m942.1 1728.7c-.5 0-1.4-.2-2.3-.5-.6-.2-1.1-.4-1.7-.7-.9-.4-6-2.9-6.4-3.1-2.6-1.3-5.5-2.9-8.6-4.5-8.4-4.4-18.9-10-28.9-14.9-8.8-4.4-36-15.7-50.6-21.3-5.6-2.1-14.4-7.3-20.7-13.8-4.4001-4.5-8.4001-10.1-11.8-16.8l-.2-.4c-1.5-2.9-3-6-4.2-9.4-.3-1-.7001-1.9-1-2.9-1.6-.3-3.8-.8-3.8-.8 4.7 11.7 11 23.1 19.0999 33.6 0 0 25.1 34.9 69.3 49.5 24 7.9 39.8 8.3 47.4001 7.3l.4-.1c.2 0 .6-.1.9-.1s.2 0 .2-.1c2-.4 2.6-.6 3.2-1.1.1-.1.2-.2.2-.2-.1.3-.3.3-.5.3z" fill="url(#k)" opacity=".71"/><path d="m913.1 1451.4c-3.9-.6-7.8-.9-11.8-1-1.8-.1-3.6-.1-5.4-.1-.6 0-1.4001 0-2 0-13.3.3-26.3 5.3-34 12.7-.3.3-.6.6-.9001.9-8.2999 8.9-9.7 17.8-9.7999 18.7.5-.1 1-.2 1.5-.2.2-.9 6.4-27.2 41.2999-28.8 19.6-.9 38.7001 4.2 56 11.5.3-1.1.6-2.2 1.1-3.3-20.5999-8.7-34.1999-10.3-35.9999-10.4z" fill="url(#l)" opacity=".71"/><path d="m948 1465c-17.3-7.3-36.5-12.4-56-11.5-34.9 1.6-41.1 27.9-41.3 28.8 3.4-.5 6.5-.7 9.1-.8 8.7-.1 23.2 1 41.4 7.5 17 6 36.4 16.1 56.4 28.9-8.4-19.2-10.4-28.9-11.3-36.3-.7-7.2.9-13.6 1.7-16.6z" fill="url(#m)" opacity=".71"/><path d="m940.3 1725.2c-1.6-.8-2.6-1.3-2.8-1.4-9.2-4.7-26-13.8-41.8-21.6-9.2-4.6-36.5-15.9-50.9-21.4-1.5-.6-3.3-1.4-5.3-2.5-3-1.7-5.5-3.3-7.8-5-1.5.1-2.2.2-4.6.5 5.6 4.7 12.1 8.3 16.6 10 14.7 5.6 41.8 16.9 50.6 21.3 9.9 4.9 20.4 10.5 28.9 14.9 3.1 1.6 6 3.1 8.6 4.5.4.2 5.6 2.7 6.4 3.1.6.2 1.1.5 1.7.7.9.3 1.8.5 2.3.5.2 0 .6 0 .7-.4.2-1.2-1.1-2.5-2.6-3.2z" fill="url(#n)" opacity=".71"/><path d="m869.9 1455.1c-4.3 2.6-7.7 5.4-10.4 8.2.1-.1.2-.2.3-.4 7.6-7.3 20.2-12.3 33.4-12.7h.3 2.4c1.9 0 3.6 0 5.4.1 4 .1 7.9001.4 11.8 1 2 .2 17.7 2 41.5 12.8 19 8.7 45.1 23.3 73.8 47.8.2.2.5.4.7.6 0 0 .1.1.1.1s0 0 .1.1c0 0 .1.1.1.1h.1.1c.2.2.3.3.5.4 1.8 1.5 3.5 3.1 5.2 4.6 5.6 4.4 12 10.2 19.1 18 4.4 4.8 9 9.5 13.1 14.8 8.1 10.5 15.5 18.9 15.1 22.2.2-.6.4-1.5.4-2.7-1.4-33.8-25.2-89.3-78-115.6-50.9003-25.3-99.0002-15.6-124.2003-5-4 1.7-7.4 3.4-10.2 5-.1997.3-.3997.5-.6997.6" fill="url(#o)" opacity=".71"/><path d="m913.7 1451.4c-.5-.1-.7-.1-.7-.1.2.1.4.1.7.1z" fill="url(#q)" opacity=".71"/><path d="m1029.1 1512.5c-29-24.8-55.3-39.7-74.5-48.4-1.9-.8-3.6-1.6-5.3-2.3-.1.2 34.4 21.6 40.7 25.6 5.8 3.6 40.1 26 40.1 26-.3-.3-.7-.6-1-.9z" fill="url(#r)" opacity=".71"/><path d="m1011.7 1558.7c-36.9-32.2-78.1-58.1-110.4-69.6-18.2-6.5-32.7-7.6-41.4-7.5-2.6 0-5.7.3-9.1.8-.5.1-1 .1-1.5.2 0 .1-.1.2-.1.3.9-.1 1.8-.3 2.7-.4 2.7-.3 5.4-.5 8-.5 9 0 23.1 1.3 41 7.5 33.2 11.5 74.5 38.8 112.2 71.7 0 0 29.7 24.8 48.5 51-18.1-26.9-49.9-53.5-49.9-53.5z" fill="url(#s)" opacity=".71"/><path d="m13 859.2 121.1-51.5c94.2-40.1 203.1 4.3 242.4 98.9 0 0 294.6 711.4 318.1 765.2 23.5 53.7 107.4 355.9-255.2 513.7-362.60007 157.8-416.3-144.3-416.3-144.3l-13.399999-57.1s228.299999 0 302.199999-77.2 87.3-100.7-6.7-308.9-292.2-738.8-292.2-738.8z" fill="#f9b11a"/><path d="m13 859.2 121.1-51.5c94.2-40.1 203.1 4.3 242.4 98.9 0 0 294.6 711.4 318.1 765.2 23.5 53.7 107.4 355.9-255.2 513.7-362.60007 157.8-416.3-144.3-416.3-144.3l-13.399999-57.1s228.299999 0 302.199999-77.2 87.3-100.7-6.7-308.9-292.2-738.8-292.2-738.8z" fill="url(#t)"/><path d="m1174.8 993.6-14.9-59.5c-17.6-70.6 26.1-141.9 97-158l414.8-94.7s315.6-30.2 164.5 258.5-268.6 510.4-268.6 510.4l429.8-87.3 21.3 86.6c14.1 57.3-22.1 114.9-79.8 127.2l-495.5 105.2s-261.9 10.1-114.2-255.2 292.1-537.2002 292.1-537.2002z" fill="#f9b11a"/><path d="m1174.8 993.6-14.9-59.5c-17.6-70.6 26.1-141.9 97-158l414.8-94.7s315.6-30.2 164.5 258.5-268.6 510.4-268.6 510.4l429.8-87.3 21.3 86.6c14.1 57.3-22.1 114.9-79.8 127.2l-495.5 105.2s-261.9 10.1-114.2-255.2 292.1-537.2002 292.1-537.2002z" fill="url(#u)"/></svg>