
<svg width="16" height="16" viewBox="0 0 16 16" fill="none" xmlns="http://www.w3.org/2000/svg">
<rect width="16" height="16" rx="8" fill="#C2D9FF"/>
<path d="M10.96 5.30985C10.9093 5.18773 10.8123 5.09069 10.6901 5.03998C10.6301 5.01437 10.5655 5.00079 10.5002 5H5.50266C5.37011 5 5.243 5.05265 5.14927 5.14638C5.05555 5.2401 5.0029 5.36721 5.0029 5.49976C5.0029 5.6323 5.05555 5.75942 5.14927 5.85314C5.243 5.94686 5.37011 5.99952 5.50266 5.99952H9.29582L5.14783 10.1425C5.10099 10.189 5.06381 10.2442 5.03844 10.3051C5.01306 10.366 5 10.4314 5 10.4973C5 10.5633 5.01306 10.6286 5.03844 10.6895C5.06381 10.7504 5.10099 10.8057 5.14783 10.8522C5.19429 10.899 5.24956 10.9362 5.31046 10.9616C5.37136 10.9869 5.43668 11 5.50266 11C5.56863 11 5.63395 10.9869 5.69485 10.9616C5.75575 10.9362 5.81103 10.899 5.85748 10.8522L10.0005 6.70418V10.4973C10.0005 10.6299 10.0531 10.757 10.1469 10.8507C10.2406 10.9444 10.3677 10.9971 10.5002 10.9971C10.6328 10.9971 10.7599 10.9444 10.8536 10.8507C10.9473 10.757 11 10.6299 11 10.4973V5.49976C10.9992 5.43445 10.9856 5.36993 10.96 5.30985Z" fill="#9BA1AD"/>
</svg>
